<svg xmlns="http://www.w3.org/2000/svg" viewBox="0 0 146.09 146.09"><defs><style>.cls-1,.cls-2{fill:#ab9df2;}.cls-1{opacity:0;}</style></defs><g id="Layer_2" data-name="Layer 2"><g id="Layer_1-2" data-name="Layer 1"><rect class="cls-1" width="146.09" height="146.09"/><path class="cls-2" d="M89.14,17.8c.25.12.51.22.76.35a4,4,0,0,1,1.49,1.5A8.53,8.53,0,0,1,92,20.94c1.53,4.13,3,8.27,4.56,12.4q2.07,5.65,4.16,11.31,2,5.34,3.92,10.7c1,2.84,2.09,5.67,3.13,8.51s2.19,6,3.28,9l3.12,8.47q1.66,4.52,3.31,9c0,.15.09.29.14.45-.21.09-.33,0-.45-.1-1.55-.79-3.12-1.55-4.73-2.2A66,66,0,0,0,95.38,84.1c-1.32-.15-2.65-.25-4-.33-1.08-.06-2.17-.07-3.25-.1-.54,0-.64-.09-.8-.59-.91-2.81-1.81-5.61-2.72-8.41l-3-9.3q-1.53-4.68-3-9.38c-.84-2.6-1.67-5.19-2.49-7.8a4.23,4.23,0,0,0-1.42-2.07A2.7,2.7,0,0,0,71.74,46a3.62,3.62,0,0,0-1.54,2q-2,6.11-3.94,12.22c-.37,1.12-.73,2.24-1.09,3.36q-1.79,5.49-3.56,11C60.72,77.28,59.85,80,59,82.74c0,.14-.1.26-.14.4a.65.65,0,0,1-.71.53h-.19a50.63,50.63,0,0,0-8.51.78,77.71,77.71,0,0,0-10,2.37,88.67,88.67,0,0,0-9.73,3.6c-.41.18-.83.34-1.24.51v-.18c.13-.25.28-.49.38-.74q2.3-6.24,4.58-12.49l4.29-11.7,4.17-11.35c1.17-3.2,2.36-6.4,3.53-9.6L50,32.39l4-10.78a9.43,9.43,0,0,1,1.11-2.25A3.68,3.68,0,0,1,56.66,18c.13-.06.24-.14.37-.2Z"/><path class="cls-2" d="M77.13,130.29c-.41-.25-.81-.51-1.22-.75a13.56,13.56,0,0,1-3-2.3,14.18,14.18,0,0,1-2-2.76,13.82,13.82,0,0,1-1.79-5.1c-.1-.77-.11-1.54-.16-2.32a42.31,42.31,0,0,0-.3-4.49,7.35,7.35,0,0,0-.6-1.95,4.15,4.15,0,0,0-3.28-2.38,6.65,6.65,0,0,0-2.81.12A5.63,5.63,0,0,0,58,111.9c-.14.34-.21.71-.33,1.06-.05.16-.11.31-.2.54-.18-.14-.32-.23-.44-.34a12.67,12.67,0,0,1-2.28-3.1,22.69,22.69,0,0,1-2.58-8.77,24.67,24.67,0,0,1,.54-8.08,1.8,1.8,0,0,1,.41-1l.32.3a16.84,16.84,0,0,0,4.11,3.32,21,21,0,0,0,5,2A52.34,52.34,0,0,0,69.41,99a47.3,47.3,0,0,0,7.43.25,33.77,33.77,0,0,0,9-1.54,29.67,29.67,0,0,0,5-2c.65-.33,1.26-.73,1.88-1.1l.16-.1c.39-.23.52-.19.65.22a13.22,13.22,0,0,1,.57,3.1,16.83,16.83,0,0,1-2.39,9.52A15.6,15.6,0,0,1,89,110.87a31.62,31.62,0,0,1-2.86,2.3c-1.44,1-2.92,2-4.39,3A14.39,14.39,0,0,0,78,119.59a8.5,8.5,0,0,0-1.65,5,15.59,15.59,0,0,0,.8,5.07c.07.22.1.45.15.68Z"/></g></g></svg>