<svg xmlns="http://www.w3.org/2000/svg" viewBox="0 0 146.09 146.09"><defs><style>.cls-1,.cls-2{fill:#80d0de;}.cls-1{opacity:0;}</style></defs><g id="Layer_2" data-name="Layer 2"><g id="Layer_1-2" data-name="Layer 1"><rect class="cls-1" width="146.09" height="146.09"/><path class="cls-2" d="M31.88,21.61H70.59a0,0,0,0,1,0,0V71a0,0,0,0,1,0,0H21.25a0,0,0,0,1,0,0V32.24A10.63,10.63,0,0,1,31.88,21.61Z"/><path class="cls-2" d="M75.5,21.61h38.71a10.63,10.63,0,0,1,10.63,10.63V71a0,0,0,0,1,0,0H75.5a0,0,0,0,1,0,0V21.61A0,0,0,0,1,75.5,21.61Z"/><path class="cls-2" d="M21.25,75.13H70.59a0,0,0,0,1,0,0v49.34a0,0,0,0,1,0,0H31.88a10.63,10.63,0,0,1-10.63-10.63V75.13A0,0,0,0,1,21.25,75.13Z"/><path class="cls-2" d="M75.5,75.13h49.34a0,0,0,0,1,0,0v38.71a10.63,10.63,0,0,1-10.63,10.63H75.5a0,0,0,0,1,0,0V75.13A0,0,0,0,1,75.5,75.13Z"/></g></g></svg>