<svg xmlns="http://www.w3.org/2000/svg" viewBox="0 0 146.09 146.09"><defs><style>.cls-1{fill:#80d0de;opacity:0;}.cls-2{fill:#78dce8;}</style></defs><g id="Layer_2" data-name="Layer 2"><g id="Layer_1-2" data-name="Layer 1"><rect class="cls-1" width="146.09" height="146.09"/><path class="cls-2" d="M118,49.17l-2.14-9.32a24.2,24.2,0,0,0-47.16,0l-3.29,14.2a7,7,0,0,1-13.83-1.57V24.74a3.64,3.64,0,0,0-3.63-3.64H32.35a17.2,17.2,0,0,0-17.2,17.21v4a6,6,0,0,0,6,5.95H35.66v31.1a9.92,9.92,0,0,0,9.93,9.93V125h8.6V89.92h9.27V125H73V90.58h18.2V125h10.59V91.91h9.26V125h9.27V92.57A10.59,10.59,0,0,0,130.94,82V59.48A13.34,13.34,0,0,1,118,49.17ZM37.65,39.54a5,5,0,1,1,5.05-5A5,5,0,0,1,37.65,39.54Z"/></g></g></svg>