<svg xmlns="http://www.w3.org/2000/svg" viewBox="0 0 148.88 147.49"><defs><style>.cls-1,.cls-3{fill:#fc9867;}.cls-1,.cls-2{opacity:0;}</style></defs><g id="Layer_2" data-name="Layer 2"><g id="Layer_1-2" data-name="Layer 1"><rect class="cls-1" x="2.79" y="0.7" width="146.09" height="146.09"/><g class="cls-2"><rect class="cls-3" x="3.15" y="3.15" width="141.2" height="141.2"/><path class="cls-3" d="M147.49,147.49H0V0H147.49ZM6.29,141.2H141.2V6.29H6.29Z"/></g><path class="cls-3" d="M115.42,48.5h-9.33l6.78-20.7a4.48,4.48,0,0,0-4.47-5.74,4.68,4.68,0,0,0-4.48,3.11L96.21,48.5H67.7l6.84-20.69a4.48,4.48,0,0,0-4.48-5.75h0a4.65,4.65,0,0,0-4.46,3.11L57.88,48.5H41.2a4.56,4.56,0,0,0-4.68,4.43v.72a4.56,4.56,0,0,0,4.68,4.44H54.71L45.23,86.81H32.08a4.57,4.57,0,0,0-4.69,4.43v.88a4.57,4.57,0,0,0,4.69,4.43H42l-7.64,23.13a4.48,4.48,0,0,0,4.48,5.75h0a4.65,4.65,0,0,0,4.47-3.11l8.51-25.77H80.34l-7.65,23.13a4.48,4.48,0,0,0,4.47,5.75h.31a4.64,4.64,0,0,0,4.47-3.12l8.43-25.76h16.24a4.57,4.57,0,0,0,4.68-4.43v-.88a4.57,4.57,0,0,0-4.68-4.43h-13L103,58.09h12.46a4.57,4.57,0,0,0,4.68-4.44v-.72A4.57,4.57,0,0,0,115.42,48.5ZM83.55,86.81H55.05l9.48-28.72H93Z"/><path class="cls-3" d="M77.47,128.3h-.31a7.63,7.63,0,0,1-6.2-3.12,7,7,0,0,1-1-6.4l6.4-19.36H53.91l-7.86,23.8a7.5,7.5,0,0,1-7.2,5.08,7.65,7.65,0,0,1-6.2-3.12,7,7,0,0,1-1-6.4L38,99.42h-6a7.44,7.44,0,0,1-7.56-7.3v-.88a7.44,7.44,0,0,1,7.56-7.3H43.15l7.59-23H41.2a7.44,7.44,0,0,1-7.55-7.31v-.72a7.44,7.44,0,0,1,7.55-7.3H55.81l7-21.36a7.49,7.49,0,0,1,7.19-5.08,7.63,7.63,0,0,1,6.21,3.12,7,7,0,0,1,1,6.41L71.67,45.63H94.14l7.06-21.36a7.51,7.51,0,0,1,7.2-5.08,7.62,7.62,0,0,1,6.18,3.11,7,7,0,0,1,1,6.39l-5.54,16.94h5.36a7.44,7.44,0,0,1,7.55,7.3v.72A7.44,7.44,0,0,1,115.42,61H105l-7.52,23h9.09a7.44,7.44,0,0,1,7.56,7.3v.88a7.44,7.44,0,0,1-7.56,7.3H92.46L84.67,123.2A7.49,7.49,0,0,1,77.47,128.3ZM49.76,93.67H84.31l-8.89,26.91a1.35,1.35,0,0,0,.2,1.24,1.86,1.86,0,0,0,1.54.74h.31a1.79,1.79,0,0,0,1.74-1.14l9.08-27.75h18.32a1.69,1.69,0,0,0,1.81-1.55v-.88a1.69,1.69,0,0,0-1.81-1.55h-17l11.28-34.47h14.54a1.7,1.7,0,0,0,1.81-1.57v-.72a1.69,1.69,0,0,0-1.81-1.55H102.13l8-24.47a1.31,1.31,0,0,0-.21-1.24,1.85,1.85,0,0,0-1.53-.74,1.81,1.81,0,0,0-1.75,1.14L98.29,51.38H63.73l8.08-24.47a1.35,1.35,0,0,0-.2-1.24,1.89,1.89,0,0,0-1.55-.74,1.8,1.8,0,0,0-1.74,1.14L60,51.38H41.2a1.69,1.69,0,0,0-1.81,1.55v.72a1.7,1.7,0,0,0,1.81,1.57H58.69L47.31,89.69H32.08a1.7,1.7,0,0,0-1.82,1.55v.88a1.7,1.7,0,0,0,1.82,1.55H46L37.1,120.58a1.35,1.35,0,0,0,.2,1.24,1.88,1.88,0,0,0,1.55.74,1.8,1.8,0,0,0,1.74-1.13Zm35.87-4H51.08L62.46,55.22H97ZM59,83.94H81.48l7.59-23H66.61Z"/></g></g></svg>