<svg xmlns="http://www.w3.org/2000/svg" viewBox="0 0 146.09 146.09"><defs><style>.cls-1{fill:#80d0de;opacity:0;}.cls-2{fill:#ffd767;}</style></defs><g id="Layer_2" data-name="Layer 2"><g id="Layer_1-2" data-name="Layer 1"><rect class="cls-1" width="146.09" height="146.09"/><path class="cls-2" d="M108.48,88.65v21.86a.66.66,0,0,1,0,.14C108.24,117,92,122,71.93,122S35.62,117,35.38,110.65V88.79c.24,6.3,16.51,11.39,36.55,11.39s36.31-5.09,36.54-11.39A.66.66,0,0,0,108.48,88.65Z"/><path class="cls-2" d="M108.48,61.07V82.93a.61.61,0,0,1,0,.14,4.44,4.44,0,0,1-.91,2.45c-3.72,5.12-18.26,9-35.64,9S40,90.64,36.3,85.52a4.36,4.36,0,0,1-.91-2.45.61.61,0,0,1,0-.14V61.07a.66.66,0,0,0,0,.14,4.31,4.31,0,0,0,.91,2.44C40,68.78,54.55,72.6,71.92,72.6s31.92-3.82,35.64-8.95a4.38,4.38,0,0,0,.91-2.44A.66.66,0,0,0,108.48,61.07Z"/><path class="cls-2" d="M108.48,35.58V55.45a.66.66,0,0,1,0,.14,4.43,4.43,0,0,1-.88,2.4,11.09,11.09,0,0,1-3.35,2.85C98.11,64.49,85.94,67,71.92,67s-26.17-2.49-32.31-6.14A11,11,0,0,1,36.27,58a4.35,4.35,0,0,1-.88-2.4.66.66,0,0,1,0-.14V35.58C35.38,29.21,51.74,24,71.92,24S108.48,29.21,108.48,35.58Z"/></g></g></svg>