<svg xmlns="http://www.w3.org/2000/svg" viewBox="0 0 146.09 146.09"><defs><style>.cls-1,.cls-2{fill:#ff6695;}.cls-1{opacity:0;}</style></defs><g id="Layer_2" data-name="Layer 2"><g id="Layer_1-2" data-name="Layer 1"><rect class="cls-1" width="146.09" height="146.09"/><rect class="cls-2" x="29.9" y="94" width="10.31" height="10.31"/><path class="cls-2" d="M134,76.69c-13.47-13.47-22.08-.91-22.66,0,.31-1.3,8.9-38.07-4.57-24.58-13.71,13.72,0,24.63,0,24.63H10.6c0,48.38,15.55,46.22,31.12,46.22,56.16,0,68.48-41.7,68.48-41.7S147.9,90.62,134,76.69ZM35.05,111A11.89,11.89,0,1,1,46.93,99.15,11.88,11.88,0,0,1,35.05,111Z"/><rect class="cls-2" x="19.89" y="49.09" width="20.03" height="20.03"/><rect class="cls-2" x="45.81" y="49.09" width="20.03" height="20.03"/><rect class="cls-2" x="71.74" y="49.09" width="20.03" height="20.03"/><rect class="cls-2" x="45.81" y="23.16" width="20.03" height="20.03"/><rect class="cls-2" x="71.74" y="23.16" width="20.03" height="20.03"/></g></g></svg>