<svg xmlns="http://www.w3.org/2000/svg" viewBox="0 0 146.09 146.09"><defs><style>.cls-1{fill:#80d0de;opacity:0;}.cls-2{fill:#fff;}</style></defs><g id="Layer_2" data-name="Layer 2"><g id="Layer_1-2" data-name="Layer 1"><rect class="cls-1" width="146.09" height="146.09"/><path class="cls-2" d="M81.58,30.8a8.9,8.9,0,0,0-17.08,0l-.6,2.07a8.9,8.9,0,0,1-11,6,9.21,9.21,0,0,1-1.75-.72l-1.88-1A8.9,8.9,0,0,0,37.14,49.21l1,1.89a8.91,8.91,0,0,1-5.3,12.8l-2.07.6a8.9,8.9,0,0,0,0,17.08l2.07.61A8.9,8.9,0,0,1,38.17,95l-1,1.89A8.9,8.9,0,0,0,49.21,109l1.89-1a8.9,8.9,0,0,1,12.07,3.55,8.63,8.63,0,0,1,.73,1.75l.6,2.06a8.9,8.9,0,0,0,17.08,0l.61-2.06a8.89,8.89,0,0,1,11-6,8.29,8.29,0,0,1,1.74.72l1.89,1A8.91,8.91,0,0,0,109,96.87l-1-1.89a8.9,8.9,0,0,1,3.55-12.07,9.21,9.21,0,0,1,1.75-.72l2.06-.61a8.9,8.9,0,0,0,0-17.08l-2.06-.6a8.89,8.89,0,0,1-6-11,8.6,8.6,0,0,1,.72-1.75l1-1.88A8.91,8.91,0,0,0,96.87,37.14l-1.89,1a8.9,8.9,0,0,1-12.07-3.56,9.12,9.12,0,0,1-.72-1.74ZM73,90.85A17.81,17.81,0,1,1,90.84,73,17.8,17.8,0,0,1,73,90.85Z"/></g></g></svg>