<svg xmlns="http://www.w3.org/2000/svg" viewBox="0 0 146.09 146.09"><defs><style>.cls-1{fill:#80d0de;opacity:0;}.cls-2{fill:#fc9867;}</style></defs><g id="Layer_2" data-name="Layer 2"><g id="Layer_1-2" data-name="Layer 1"><rect class="cls-1" width="146.09" height="146.09"/><path class="cls-2" d="M131,80.94,81,131a11.2,11.2,0,0,1-15.83,0l-50-50a11.18,11.18,0,0,1,0-15.82L51.22,29,61,38.77a13.37,13.37,0,0,0-1.58,6.35,13.61,13.61,0,0,0,10,13.13V88.47a13.64,13.64,0,1,0,8.23.28V58a14.13,14.13,0,0,0,1.82-.8l9.64,9.64a13.65,13.65,0,1,0,12.07-7.27,13.19,13.19,0,0,0-5.34,1.11L85.57,50.46a13.18,13.18,0,0,0,1.1-5.34,13.62,13.62,0,0,0-19-12.54l-10-10,7.46-7.45a11.2,11.2,0,0,1,15.83,0l50,50A11.18,11.18,0,0,1,131,80.94Z"/></g></g></svg>