<svg xmlns="http://www.w3.org/2000/svg" viewBox="0 0 146.09 146.09"><defs><style>.cls-1{fill:#ab9df2;opacity:0;}.cls-2{fill:#78dce8;}</style></defs><g id="Layer_2" data-name="Layer 2"><g id="Layer_1-2" data-name="Layer 1"><rect class="cls-1" width="146.09" height="146.09"/><rect class="cls-2" x="9.11" y="48.73" width="32.69" height="11.75" rx="5.15"/><rect class="cls-2" x="2.21" y="67.17" width="39.58" height="11.75" rx="5.15"/><rect class="cls-2" x="17.37" y="85.61" width="24.42" height="11.75" rx="5.15"/><path class="cls-2" d="M85.41,41H59.55a12.7,12.7,0,0,0-12.7,12.7v39a12.71,12.71,0,0,0,12.7,12.7H79.79a12.71,12.71,0,0,0,12.7-12.7V74.44a7.27,7.27,0,0,0-7.27-7.27H68.28v13.3H78.77v5a6.06,6.06,0,0,1-6.06,6.06H66.56A6.06,6.06,0,0,1,60.5,85.5V61.24a6.06,6.06,0,0,1,6.06-6.06H85.41a7.07,7.07,0,0,0,7.08-7.07h0A7.07,7.07,0,0,0,85.41,41Z"/><path class="cls-2" d="M97.39,52.76V93.33a12.11,12.11,0,0,0,12.11,12.1h22.27a12.1,12.1,0,0,0,12.1-12.1V52.76a12.1,12.1,0,0,0-12.1-12.1H109.5A12.11,12.11,0,0,0,97.39,52.76ZM125,91.45h-8.34a6.23,6.23,0,0,1-6.23-6.23V60.87a6.23,6.23,0,0,1,6.23-6.23H125a6.23,6.23,0,0,1,6.23,6.23V85.22A6.23,6.23,0,0,1,125,91.45Z"/></g></g></svg>