<svg xmlns="http://www.w3.org/2000/svg" viewBox="0 0 146.09 146.09"><defs><style>.cls-1{fill:#80d0de;opacity:0;}.cls-2{fill:#ff6695;}</style></defs><g id="Layer_2" data-name="Layer 2"><g id="Layer_1-2" data-name="Layer 1"><rect class="cls-1" width="146.09" height="146.09"/><path class="cls-2" d="M62.56,121.11a10.5,10.5,0,0,1,.32-2.56c.08-.34.07-.38-.23-.55L55,113.58l-6.5-3.76-7.17-4.13-2-1.17c-.31-.18-.34-.17-.59.07A10.47,10.47,0,0,1,21.8,93,10.14,10.14,0,0,1,24,89.71a10.31,10.31,0,0,1,4.41-2.66l.18,0c.27-.09.33-.16.34-.45V59.85c0-.78,0-.66-.6-.84a10.58,10.58,0,0,1-3.78-2.1,10.47,10.47,0,0,1,5.78-18.32,10.26,10.26,0,0,1,5.86,1.08,10,10,0,0,1,2.51,1.81c.27.27.31.28.64.09l6.9-4,7.15-4.12,6.49-3.75,2.64-1.52.24-.15a.34.34,0,0,0,.17-.42c0-.17-.09-.34-.12-.52a10.49,10.49,0,0,1,.65-6.33A10.26,10.26,0,0,1,65.2,18a10.47,10.47,0,0,1,18.26,6,10.26,10.26,0,0,1-.27,3.49s0,0,0,.06c-.07.34-.07.37.24.55l1.24.72L90.12,32l8,4.6,7.36,4.25,1.27.73c.31.19.35.18.62-.07a10.68,10.68,0,0,1,4.57-2.61A10.49,10.49,0,0,1,125,47.42a9.88,9.88,0,0,1-.63,5.43A10.26,10.26,0,0,1,117.64,59c-.5.16-.51.16-.51.69v26.8c0,.32.05.38.36.47a10.83,10.83,0,0,1,2.61,1.14,10.47,10.47,0,0,1-2,18.81,10.39,10.39,0,0,1-2.82.57,10.21,10.21,0,0,1-3.81-.45,10,10,0,0,1-3.7-2.06c-.25-.21-.49-.44-.73-.67s-.29-.23-.57-.07l-2.19,1.26-5.85,3.38-5.76,3.33-9.17,5.29c-.61.35-.53.33-.38.89a10.62,10.62,0,0,1,.35,3,10.44,10.44,0,0,1-1.57,5.18,10.85,10.85,0,0,1-1.48,1.88,10.2,10.2,0,0,1-2.08,1.62,10.5,10.5,0,0,1-4.13,1.4,10.25,10.25,0,0,1-5.64-.92,10,10,0,0,1-3.38-2.5,10.22,10.22,0,0,1-2.57-5.63C62.6,122,62.59,121.57,62.56,121.11ZM73,94.56h31c.35,0,.41,0,.51-.38a10.55,10.55,0,0,1,2.15-4l.44-.49a.34.34,0,0,0,.06-.5l-.08-.13c-1.24-2.16-2.49-4.31-3.74-6.47l-4.58-7.95c-1.34-2.31-2.67-4.62-4-6.92Q92.41,63.55,90,59.35c-1-1.82-2.09-3.63-3.14-5.45l-3.27-5.66-3.39-5.87c-1.35-2.34-2.7-4.67-4-7-.16-.28-.23-.3-.53-.24l-.15,0a10.45,10.45,0,0,1-4.91,0c-.36-.09-.41-.07-.61.29q-1.56,2.67-3.1,5.36t-3.19,5.53L59.89,52.8q-2.07,3.57-4.12,7.14-2.22,3.86-4.46,7.71l-4.6,8-3.33,5.77L40,87.24l-1.16,2c-.14.25-.13.29.06.49l.1.12a9,9,0,0,1,1.84,2.64c.25.55.44,1.12.65,1.68.11.31.16.36.49.37H73Zm0,5H41.86c-.14,0-.27,0-.31.21s.08.22.19.28l1.1.64,8.39,4.84,5.36,3.1L62.41,112l2.8,1.62c.26.15.33.13.55-.07s.4-.37.61-.54a10.21,10.21,0,0,1,3.92-2,10.44,10.44,0,0,1,3.48-.34A10.58,10.58,0,0,1,78,111.87a11.55,11.55,0,0,1,2.61,1.95c.19.18.22.19.46.06l.16-.09,5.71-3.3,8.44-4.87,5.45-3.14,3.58-2.07c.24-.14.27-.19.22-.42s-.15-.36-.42-.38H73ZM34,73V86.25a2.43,2.43,0,0,0,0,.47.39.39,0,0,0,.18.22c.1.06.2,0,.26-.11l.24-.4c1-1.72,2-3.44,3-5.15l4-6.93,4.59-7.95,4-6.93,5.27-9.13L59.74,43l5.54-9.6a7.44,7.44,0,0,0,.38-.68.31.31,0,0,0,0-.25.38.38,0,0,0-.28-.07.84.84,0,0,0-.27.13L61,34.88l-8,4.6-5.44,3.15c-1.89,1.09-3.78,2.17-5.66,3.27-.43.24-.43.25-.32.73a10.45,10.45,0,0,1-7,12.35c-.6.19-.6.18-.6.82Zm70.58-26.68c0-.21-.11-.26-.24-.34l-3.63-2.1c-1.92-1.11-3.84-2.23-5.77-3.33l-7.17-4.14-6.84-4a1,1,0,0,0-.23-.11c-.2,0-.32.08-.26.28a.91.91,0,0,0,.11.22l3.48,6,3.77,6.52q2.43,4.18,4.84,8.38l4,6.93,4.59,7.95c1,1.82,2.1,3.65,3.16,5.47l3.14,5.44,3.37,5.85.77,1.32c.06.1.12.21.26.18s.18-.16.19-.29V59.46a.36.36,0,0,0-.29-.39l-.3-.09a10.26,10.26,0,0,1-3.88-2.23,10.43,10.43,0,0,1-3.14-5.38,10,10,0,0,1-.27-2.5,9.84,9.84,0,0,1,.33-2.46A.23.23,0,0,0,104.54,46.34Z"/></g></g></svg>