<svg xmlns="http://www.w3.org/2000/svg" viewBox="0 0 146.09 146.09"><defs><style>.cls-1{fill:#80d0de;opacity:0;}.cls-2{fill:#ffd767;}</style></defs><g id="Layer_2" data-name="Layer 2"><g id="Layer_1-2" data-name="Layer 1"><rect class="cls-1" width="146.09" height="146.09"/><path class="cls-2" d="M16.11,41V54.45H36.45v39.1H16.11v11.51h29A14.91,14.91,0,0,0,60,90.15V54.83H67.1V41Z"/><path class="cls-2" d="M130,41.41h-38A11.79,11.79,0,0,0,80.14,53.2V68.35A11.79,11.79,0,0,0,91.93,80.14h14.66V92.79H80.14v11.88h38.05A11.79,11.79,0,0,0,130,92.88V80.81A11.79,11.79,0,0,0,118.19,69H102V53.68h28Z"/></g></g></svg>