<svg xmlns="http://www.w3.org/2000/svg" viewBox="0 0 146.09 146.09"><defs><style>.cls-1{fill:#80d0de;opacity:0;}.cls-2{fill:#78dce8;}</style></defs><g id="Layer_2" data-name="Layer 2"><g id="Layer_1-2" data-name="Layer 1"><rect class="cls-1" width="146.09" height="146.09"/><path class="cls-2" d="M116.47,73c.52-.66,1-1.32,1.51-2,7.56-10.42,9.48-20,5.42-27.08S110,33.79,97.24,35.12c-.82.09-1.65.19-2.48.31-.32-.78-.64-1.55-1-2.3C88.54,21.37,81.17,14.9,73,14.9S57.55,21.37,52.3,33.13c-.33.75-.66,1.52-1,2.3-.83-.12-1.66-.22-2.48-.31-12.8-1.34-22.1,1.81-26.16,8.85s-2.14,16.66,5.42,27.08c.49.67,1,1.33,1.51,2-.52.67-1,1.33-1.51,2-7.56,10.41-9.49,20-5.42,27.08,3.45,6,10.67,9.14,20.61,9.14a53.9,53.9,0,0,0,5.55-.3c.82-.09,1.65-.19,2.48-.31.31.78.64,1.55,1,2.3,5.25,11.76,12.61,18.24,20.74,18.24s15.5-6.48,20.74-18.24c.34-.75.66-1.52,1-2.3.83.12,1.66.22,2.48.31a53.9,53.9,0,0,0,5.55.3c9.94,0,17.16-3.17,20.61-9.14,4.06-7.05,2.14-16.67-5.42-27.08C117.5,74.37,117,73.71,116.47,73ZM29.66,48c1.92-3.33,6.82-5.13,13.67-5.13a44.91,44.91,0,0,1,5.38.34,99.5,99.5,0,0,0-2.83,14.15A100.09,100.09,0,0,0,35,66.89C29.25,59.1,27.27,52.13,29.66,48ZM45,77.56Q42.44,75.29,40.27,73c1.44-1.5,3-3,4.69-4.51-.05,1.49-.08,3-.08,4.51S44.91,76.06,45,77.56ZM29.66,98.09C27.27,94,29.25,87,35,79.19a100.09,100.09,0,0,0,10.84,9.53,98.25,98.25,0,0,0,2.84,14.16C39.07,104,32.05,102.23,29.66,98.09ZM83.1,90.46c-3.41,2-6.78,3.69-10.06,5.18-3.28-1.49-6.65-3.22-10.05-5.18s-6.58-4-9.51-6.12c-.36-3.59-.55-7.37-.55-11.3s.19-7.7.55-11.29c2.93-2.1,6.1-4.15,9.51-6.12s6.77-3.7,10.05-5.19Q78,52.68,83.1,55.63t9.51,6.11c.36,3.59.54,7.37.54,11.3s-.18,7.72-.54,11.31C89.68,86.44,86.51,88.49,83.1,90.46ZM91,95.1c-.45,2.22-1,4.33-1.56,6.32q-3-.73-6.26-1.8c1.32-.7,2.64-1.44,4-2.19S89.73,95.89,91,95.1ZM62.91,99.62q-3.22,1.06-6.26,1.8c-.57-2-1.1-4.1-1.56-6.32Q57,96.29,59,97.43C60.28,98.18,61.59,98.92,62.91,99.62ZM55.09,51c.46-2.22,1-4.33,1.57-6.32q3,.75,6.26,1.81c-1.32.69-2.64,1.43-4,2.18S56.36,50.18,55.09,51Zm28.08-4.51c2.15-.71,4.24-1.31,6.25-1.81.59,2,1.12,4.1,1.57,6.32-1.26-.8-2.55-1.57-3.87-2.33S84.49,47.16,83.17,46.47ZM73,23c4.78,0,9.84,5.19,13.68,14.11a97.87,97.87,0,0,0-13.67,4.62,99.88,99.88,0,0,0-13.69-4.62C63.21,28.14,68.27,23,73,23Zm0,100.19c-4.77,0-9.83-5.19-13.68-14.11a101.26,101.26,0,0,0,13.69-4.62A100.55,100.55,0,0,0,86.72,109C82.88,118,77.82,123.14,73,123.14Zm29.73-80.27c6.84,0,11.74,1.81,13.66,5.13,2.39,4.13.42,11.1-5.38,18.89a102,102,0,0,0-10.84-9.53,99.48,99.48,0,0,0-2.84-14.15A45.23,45.23,0,0,1,102.77,42.87Zm-1.65,25.66c1.69,1.5,3.26,3,4.69,4.51-1.43,1.51-3,3-4.69,4.52.06-1.5.08-3,.08-4.52S101.18,70,101.12,68.53Zm15.31,29.56C114,102.23,107,104,97.37,102.88a99.48,99.48,0,0,0,2.84-14.15,102.09,102.09,0,0,0,10.84-9.54C116.85,87,118.82,94,116.43,98.09Z"/><circle class="cls-2" cx="73.04" cy="73.04" r="12.14"/></g></g></svg>