<svg xmlns="http://www.w3.org/2000/svg" viewBox="0 0 146.09 146.09"><defs><style>.cls-1,.cls-2{fill:#78dce8;}.cls-1{opacity:0;}</style></defs><g id="Layer_2" data-name="Layer 2"><g id="Layer_1-2" data-name="Layer 1"><rect class="cls-1" width="146.09" height="146.09"/><path class="cls-2" d="M47.07,51.67V94.42a9.36,9.36,0,0,0,9.36,9.36h0v20.43h-13A15.21,15.21,0,0,1,28.18,109V94.74A10.85,10.85,0,0,0,17.33,83.89h0V62.19h0A10.84,10.84,0,0,0,28.18,51.35V37.09A15.22,15.22,0,0,1,43.4,21.87h13V42.31h0A9.36,9.36,0,0,0,47.07,51.67Z"/><path class="cls-2" d="M94.83,51.67V94.42a9.36,9.36,0,0,1-9.36,9.36h0v20.43h13A15.21,15.21,0,0,0,113.72,109V94.74a10.85,10.85,0,0,1,10.85-10.85h0V62.19h0a10.84,10.84,0,0,1-10.85-10.84V37.09A15.22,15.22,0,0,0,98.51,21.87h-13V42.31h0A9.36,9.36,0,0,1,94.83,51.67Z"/></g></g></svg>