<svg xmlns="http://www.w3.org/2000/svg" viewBox="0 0 94.74 81.66"><defs><style>.cls-1{fill:#fc9867;}</style></defs><g id="Layer_2" data-name="Layer 2"><g id="Layer_1-2" data-name="Layer 1"><path class="cls-1" d="M0,2.49C7.47.86,39.14,0,47.1,0c8.15,0,40,.9,47.64,2.62C94.27,3.84,69.8,5.37,69.15,7.1,64.81,18.68,56.68,39.33,47.39,39.33s-17.23-20-21.6-31.76C25.06,5.6.51,3.86,0,2.49Z"/><path class="cls-1" d="M82.46,79.16a239.08,239.08,0,0,1-34.68,2.5A238.65,238.65,0,0,1,12.28,79c2.71-4.71-1.06-48.31,5-51.16s22,35,30,35c7.47,0,24.68-38.1,30.53-35.58C84.6,30.23,79.6,74.09,82.46,79.16Z"/></g></g></svg>