<svg xmlns="http://www.w3.org/2000/svg" viewBox="0 0 146.09 146.09"><defs><style>.cls-1,.cls-2{fill:#ab9df2;}.cls-1{opacity:0;}</style></defs><g id="Layer_2" data-name="Layer 2"><g id="Layer_1-2" data-name="Layer 1"><rect class="cls-1" width="146.09" height="146.09"/><path class="cls-2" d="M73,29.62c-.66-.53-1.32-1-2-1.51C60.63,20.55,51,18.62,44,22.69S33.79,36,35.12,48.85c.09.82.19,1.64.31,2.48-.78.32-1.55.64-2.3,1C21.37,57.54,14.9,64.91,14.9,73s6.47,15.5,18.23,20.75c.75.33,1.52.65,2.3,1-.12.83-.22,1.66-.31,2.47C33.78,110,36.93,119.34,44,123.4s16.66,2.13,27.08-5.43c.67-.48,1.33-1,2-1.5.67.52,1.33,1,2,1.5,10.41,7.56,20,9.5,27.08,5.43,6-3.45,9.14-10.67,9.14-20.61a54.24,54.24,0,0,0-.3-5.56c-.09-.81-.19-1.64-.31-2.47.78-.32,1.55-.64,2.3-1,11.76-5.25,18.24-12.62,18.24-20.75S124.71,57.54,113,52.3c-.75-.33-1.52-.65-2.3-1,.12-.84.22-1.66.31-2.48a53.9,53.9,0,0,0,.3-5.55c0-9.94-3.17-17.16-9.14-20.61C95.07,18.62,85.45,20.55,75,28.11,74.37,28.59,73.71,29.09,73,29.62Zm-25,86.8c-3.33-1.91-5.13-6.81-5.13-13.66a45.2,45.2,0,0,1,.34-5.39,98.11,98.11,0,0,0,14.15,2.84,101,101,0,0,0,9.53,10.84C59.1,116.84,52.13,118.81,48,116.42Zm29.56-15.3q-2.27,2.53-4.52,4.69c-1.5-1.43-3-3-4.51-4.69,1.49.06,3,.08,4.51.08S76.06,101.18,77.56,101.12Zm20.53,15.3c-4.14,2.39-11.11.42-18.9-5.37a101,101,0,0,0,9.53-10.84,98.25,98.25,0,0,0,14.16-2.84C104,107,102.23,114,98.09,116.42ZM90.46,63c2,3.41,3.69,6.77,5.18,10.05-1.49,3.28-3.22,6.65-5.18,10.06s-4,6.58-6.12,9.51c-3.59.36-7.37.54-11.3.54s-7.7-.18-11.29-.54c-2.1-2.93-4.15-6.1-6.12-9.51S51.93,76.33,50.44,73c1.49-3.28,3.22-6.64,5.19-10.05s4-6.58,6.11-9.51c3.59-.36,7.37-.55,11.3-.55s7.72.19,11.31.55C86.44,56.41,88.49,59.58,90.46,63Zm4.64-7.9c2.22.46,4.33,1,6.32,1.57-.49,2-1.09,4.1-1.8,6.26-.7-1.33-1.44-2.64-2.19-4S95.89,56.36,95.1,55.09Zm4.52,28.08c.71,2.16,1.31,4.24,1.8,6.26-2,.58-4.1,1.11-6.32,1.56q1.19-1.89,2.33-3.87C98.18,85.81,98.92,84.49,99.62,83.17ZM51,91c-2.22-.45-4.33-1-6.32-1.56q.75-3,1.81-6.26c.69,1.32,1.43,2.64,2.18,4S50.18,89.73,51,91ZM46.47,62.92q-1.06-3.22-1.81-6.26c2-.58,4.1-1.11,6.32-1.57-.8,1.27-1.57,2.56-2.33,3.87S47.16,61.59,46.47,62.92ZM23,73c0-4.77,5.19-9.83,14.11-13.67A98.31,98.31,0,0,0,41.68,73a99.31,99.31,0,0,0-4.62,13.68C28.14,82.88,23,77.82,23,73Zm100.19,0c0,4.78-5.19,9.84-14.11,13.68A100.67,100.67,0,0,0,104.41,73,101,101,0,0,0,109,59.37C118,63.21,123.14,68.27,123.14,73ZM42.87,43.32c0-6.84,1.81-11.74,5.13-13.66,4.13-2.39,11.1-.42,18.89,5.38a100.09,100.09,0,0,0-9.53,10.84,99.5,99.5,0,0,0-14.15,2.83A45.07,45.07,0,0,1,42.87,43.32ZM68.53,45c1.5-1.69,3-3.25,4.51-4.68Q75.3,42.43,77.56,45c-1.5-.05-3-.08-4.52-.08S70,44.91,68.53,45Zm29.56-15.3c4.14,2.39,5.92,9.42,4.79,19.06a98.11,98.11,0,0,0-14.15-2.84A100.15,100.15,0,0,0,79.19,35C87,29.24,94,27.27,98.09,29.66Z"/><circle class="cls-2" cx="73.04" cy="73.04" r="12.14"/></g></g></svg>