<svg xmlns="http://www.w3.org/2000/svg" viewBox="0 0 146.61 146.61"><defs><style>.cls-1{fill:#ff6695;}</style></defs><g id="Layer_2" data-name="Layer 2"><g id="Layer_1-2" data-name="Layer 1"><path class="cls-1" d="M0,0V146.61H146.61V0ZM73.22,101.64a42.91,42.91,0,0,1-.54,6.87,27.57,27.57,0,0,1-1.76,6.13,18.51,18.51,0,0,1-7.93,8.9c-3.56,2-8.36,3.09-14.25,3.09a39.44,39.44,0,0,1-5.54-.37A28.39,28.39,0,0,1,38,125a27.32,27.32,0,0,1-4.39-1.74,28,28,0,0,1-3.44-2.08l-1-.7L35.38,106l4.13,2.23a18.67,18.67,0,0,0,2.59,1.14,11.79,11.79,0,0,0,2.7.82,16.77,16.77,0,0,0,2.9.24c2.46,0,4.23-.66,5.38-2s1.82-3.92,1.82-7.46V50.46H73.22Zm54.8,8.14a22.59,22.59,0,0,1-2.33,5.66,21.86,21.86,0,0,1-9.17,8.3c-3.88,1.92-8.79,2.89-14.59,2.89a56.2,56.2,0,0,1-6.64-.37,27.17,27.17,0,0,1-6-1.37c-1.81-.63-3.42-1.23-4.77-1.78a23.25,23.25,0,0,1-3.71-1.89l-1-.64L85.39,105,87,106.26A13.89,13.89,0,0,0,89.88,108a31.1,31.1,0,0,0,3.5,1.33,21.21,21.21,0,0,0,4,1,30.52,30.52,0,0,0,4.28.29,17.15,17.15,0,0,0,4.09-.42,5.52,5.52,0,0,0,2.46-1.25,6.27,6.27,0,0,0,1.42-1.87,5.66,5.66,0,0,0,.47-2.41,6.59,6.59,0,0,0-.29-1.93,14.45,14.45,0,0,0-.75-1.86,14.9,14.9,0,0,0-3.75-3.46,55.52,55.52,0,0,0-7.4-4.13q-2.3-1.2-4.35-2.52C92.14,89.86,90.84,89,89.64,88a22.37,22.37,0,0,1-6.19-6.92,19.32,19.32,0,0,1-2.27-9.59A22.63,22.63,0,0,1,82,65.27a22,22,0,0,1,2.38-5.5,21.48,21.48,0,0,1,8.84-8,29,29,0,0,1,13.15-2.85,49.76,49.76,0,0,1,5.71.32,34.87,34.87,0,0,1,5.13,1c1.61.52,3.1,1,4.47,1.61a35.37,35.37,0,0,1,3.84,1.84l1.12.64-5.65,15-1.55-1a24.5,24.5,0,0,0-5.31-2.43,21.31,21.31,0,0,0-6.63-1c-2.75,0-4.76.47-6,1.4a4.35,4.35,0,0,0-1.63,3.72,6,6,0,0,0,.24,1.78,4.29,4.29,0,0,0,.7,1.36,14.23,14.23,0,0,0,3.56,2.88c1.72,1,4,2.34,6.72,3.85,1.91,1,3.75,2.06,5.44,3.08a26.36,26.36,0,0,1,4.49,3.35,22.37,22.37,0,0,1,5.82,7.44,22.66,22.66,0,0,1,1.9,9.59A25.64,25.64,0,0,1,128,109.78Z"/></g></g></svg>