<svg xmlns="http://www.w3.org/2000/svg" viewBox="0 0 146.09 146.09"><defs><style>.cls-1{fill:#80d0de;opacity:0;}.cls-2{fill:#ff6695;}</style></defs><g id="Layer_2" data-name="Layer 2"><g id="Layer_1-2" data-name="Layer 1"><rect class="cls-1" width="146.09" height="146.09"/><path class="cls-2" d="M41.41,54.76V90.28A11.74,11.74,0,0,0,53.15,102H72.2v4.34H61.38v11.46H72.2v10.65H42a15.69,15.69,0,0,1-15.68-15.68V33.31A15.68,15.68,0,0,1,42,17.63H61.38v11H72.2V39.48H61.38V43H53.15A11.74,11.74,0,0,0,41.41,54.76Z"/><path class="cls-2" d="M118.74,33.31v79.48a15.69,15.69,0,0,1-15.69,15.68H83.67V117.19H72.84V106.36H83.67V102h8.22a11.74,11.74,0,0,0,11.74-11.74V54.76A11.74,11.74,0,0,0,91.89,43h-19V39.48H83.67V28H72.84V17.63h30.21A15.68,15.68,0,0,1,118.74,33.31Z"/><rect class="cls-2" x="52.66" y="55.25" width="39.08" height="34.38" rx="4.77"/></g></g></svg>