<svg xmlns="http://www.w3.org/2000/svg" viewBox="0 0 146.09 146.09"><defs><style>.cls-1{fill:#80d0de;opacity:0;}.cls-2{fill:#ff6695;}</style></defs><g id="Layer_2" data-name="Layer 2"><g id="Layer_1-2" data-name="Layer 1"><rect class="cls-1" width="146.09" height="146.09"/><path class="cls-2" d="M33.63,122.12a9.2,9.2,0,0,1-5.06-4.86,12.4,12.4,0,0,1,.92-12.74c2.29-3.55,6.09-6.57,10.38-9.1A89.22,89.22,0,0,1,57,88,230.92,230.92,0,0,0,69.29,62.21a84.11,84.11,0,0,1-5-15c-1-4.62-1.37-9.2-.53-13.13.87-4.1,3.17-7.77,7.52-9.52a12,12,0,0,1,7-.89,8.14,8.14,0,0,1,5.52,4.22,14.48,14.48,0,0,1,1.46,6.22,36.72,36.72,0,0,1-.54,7.1,114,114,0,0,1-6,20.75A126.72,126.72,0,0,0,90,81.47a67.53,67.53,0,0,1,15.43.58c4.21.75,8.48,2.26,11.1,5.38a9.75,9.75,0,0,1,2.31,6,13.37,13.37,0,0,1-1.6,6.51,12,12,0,0,1-4.09,4.81,9.93,9.93,0,0,1-5.9,1.6c-3.82-.17-7.56-2.27-10.79-4.83A65.54,65.54,0,0,1,86,90.53a133.53,133.53,0,0,0-23.09,4.69,131.2,131.2,0,0,1-11.81,17.47c-3.35,4-7,7.57-10.71,9.1a9.31,9.31,0,0,1-6.71.33m15.95-22a56.93,56.93,0,0,0-5.31,2.75c-3.79,2.24-6.25,4.43-7.48,6.33-1.09,1.67-1.11,2.89-.46,4.17a2.41,2.41,0,0,0,.3.51l.4-.14c1.59-.65,4.11-2.72,7.35-6.61q2.76-3.39,5.2-7m19-15.38q5.79-1.35,11.68-2.23-3.17-4.84-5.9-9.93-2.73,6.15-5.78,12.15ZM96.83,90a45.75,45.75,0,0,0,5,4.74c2.78,2.2,4.71,2.93,5.76,3a1.11,1.11,0,0,0,.81-.17A3.55,3.55,0,0,0,109.52,96a5,5,0,0,0,.68-2.31,1.16,1.16,0,0,0-.3-.73c-.6-.71-2.31-1.75-6-2.41A46.68,46.68,0,0,0,96.83,90Zm-23-40.54a80.48,80.48,0,0,0,2.31-9.58,26.88,26.88,0,0,0,.44-5.37,6.83,6.83,0,0,0-.37-2.29,5.83,5.83,0,0,0-1.68.46c-1,.4-1.82,1.22-2.26,3.27a24,24,0,0,0,.53,9.51c.28,1.28.62,2.62,1,4Z"/></g></g></svg>