<svg xmlns="http://www.w3.org/2000/svg" viewBox="0 0 146.09 146.09"><defs><style>.cls-1{fill:#80d0de;opacity:0;}.cls-2{fill:#78dce8;}</style></defs><g id="Layer_2" data-name="Layer 2"><g id="Layer_1-2" data-name="Layer 1"><rect class="cls-1" width="146.09" height="146.09"/><path class="cls-2" d="M125.71,62.38h-4.28V59.62c0-8.49-7.39-15.38-16.53-15.38H94.29V62.92c0,11.38-9.9,20.6-22.14,20.6H68.33V76.93H69.5C78.62,76.93,86,70,86,61.55v-20C86,33,78.62,26.11,69.5,26.11H50.91V36H30c-8.46,0-15.33,6.38-15.33,14.28v49c0,6.61,5.74,12,12.82,12h4.59V94.52h1.18c10.27,0,18.57-7.75,18.57-17.32L58,76.93v9.9c0,4.7-4.09,8.51-9.13,8.51v23.9s29.19,1.65,29.19,0V102.75H94.88V120h27.73V86.28h8.84V67.73A5.56,5.56,0,0,0,125.71,62.38Zm-84.32,6.9H30.83V59.45H41.39Z"/></g></g></svg>