<svg xmlns="http://www.w3.org/2000/svg" viewBox="0 0 146.09 146.09"><defs><style>.cls-1{fill:#ab9df2;opacity:0;}.cls-2{fill:#78dce8;}</style></defs><g id="Layer_2" data-name="Layer 2"><g id="Layer_1-2" data-name="Layer 1"><rect class="cls-1" width="146.09" height="146.09"/><path class="cls-2" d="M66.89,54.07l-21.3,60.36H66.77L88.25,54.07Z"/><path class="cls-2" d="M137.5,105a8.77,8.77,0,0,1-4.12,7.06,14.38,14.38,0,0,1-8.18,2.35H102.55q-4.65,0-7.06-2.46c-1.07-1.06-2.4-3.38-4-7L79.89,79.37A85.35,85.35,0,0,0,90,76a94,94,0,0,0,9.59-3.88Q111.26,66.07,111.26,57q0-10.47-14.83-10.47H51.5A25,25,0,0,0,29.37,59.81L24.53,69a15.39,15.39,0,0,0,13.6,22.58h9.39l-5.48,14H36.8A28.17,28.17,0,0,1,12,64l5-9.19A44,44,0,0,1,55.69,31.65h49.15q31.95,0,31.95,20.36,0,17.25-33.24,30.13L114.14,105Z"/></g></g></svg>