<svg xmlns="http://www.w3.org/2000/svg" viewBox="0 0 147.09 147.09"><defs><style>.cls-1{fill:#80d0de;opacity:0;}.cls-1,.cls-2,.cls-3{stroke:#78dce8;stroke-miterlimit:10;}.cls-2{fill:none;stroke-width:12px;}.cls-3{fill:#78dce8;stroke-width:4px;}</style></defs><g id="Layer_2" data-name="Layer 2"><g id="Layer_1-2" data-name="Layer 1"><rect class="cls-1" x="0.5" y="0.5" width="146.09" height="146.09"/><circle class="cls-2" cx="71.59" cy="73.54" r="52.85"/><path class="cls-3" d="M76.2,64.93l1.49.93q-.43,4.67-.56,10.25-.43,18.15-.44,26.77,0,8.09.56,13.79a5,5,0,0,0,1.18,3.11c.63.58,2.12,1,4.48,1.3l4.22.56v3.61q-9.07-.44-16.52-.44t-14.79.44v-3.61l5.35-.56c2.07-.16,3.34-.55,3.82-1.15s.77-2.6.9-6q.3-7.9.31-21.8,0-9.65-.31-14.88A3.77,3.77,0,0,0,64.8,74.5q-1-.81-4.32-.81H55.82v-3.6Q63.41,69,67,68.06A82.68,82.68,0,0,0,76.2,64.93Zm-5-27.51a6.65,6.65,0,0,1,4.91,2.08,7.09,7.09,0,0,1,0,10,7,7,0,0,1-11.93-5,6.84,6.84,0,0,1,2.05-5A6.71,6.71,0,0,1,71.23,37.42Z"/></g></g></svg>