<svg xmlns="http://www.w3.org/2000/svg" viewBox="0 0 146.09 146.09"><defs><style>.cls-1{fill:#ab9df2;opacity:0;}.cls-2{fill:#ffd767;}</style></defs><g id="Layer_2" data-name="Layer 2"><g id="Layer_1-2" data-name="Layer 1"><rect class="cls-1" width="146.09" height="146.09"/><path class="cls-2" d="M74.84,31.88a43,43,0,1,0,43,43,43,43,0,0,0-43-43m-49.17,43a49.18,49.18,0,1,1,49.17,49.18A49.16,49.16,0,0,1,25.67,74.9"/><path class="cls-2" d="M77.92,53.39a3.08,3.08,0,1,1-3.08-3.07,3.07,3.07,0,0,1,3.08,3.07m0,43a3.08,3.08,0,1,1-3.08-3.08,3.08,3.08,0,0,1,3.08,3.08M88.26,57.81a3.07,3.07,0,0,1-5.34-3l0,0a3.07,3.07,0,0,1,5.32,3.07M66.75,95.07a3.08,3.08,0,0,1-5.35-3l0,0a3.08,3.08,0,0,1,5.33,3.07M95,66.81A3.08,3.08,0,1,1,91.9,61.5l0,0A3.08,3.08,0,0,1,95,66.81M57.75,88.32A3.07,3.07,0,1,1,54.64,83l0,0a3.07,3.07,0,0,1,3.08,5.32M96.36,78a3.08,3.08,0,1,1,3.07-3.08A3.08,3.08,0,0,1,96.36,78m-43,0A3.08,3.08,0,1,1,56.4,74.9,3.07,3.07,0,0,1,53.33,78M91.94,88.32A3.07,3.07,0,1,1,95,83l0,0a3.07,3.07,0,0,1-3.07,5.32M54.67,66.81a3.08,3.08,0,0,1,3-5.35l0,0a3.08,3.08,0,0,1-3.08,5.33M82.94,95.07A3.07,3.07,0,1,1,88.24,92l0,0a3.07,3.07,0,0,1-5.32,3.07M61.42,57.81a3.08,3.08,0,0,1,5.31-3.11l0,0a3.08,3.08,0,0,1-5.33,3.07"/></g></g></svg>