<svg xmlns="http://www.w3.org/2000/svg" viewBox="0 0 146.09 146.09"><defs><style>.cls-1{fill:#80d0de;opacity:0;}.cls-2{fill:#ff6695;}</style></defs><g id="Layer_2" data-name="Layer 2"><g id="Layer_1-2" data-name="Layer 1"><rect class="cls-1" width="146.09" height="146.09"/><path class="cls-2" d="M61,58.45s2.88,17.48,34.24,7,23.62-37.14,23.62-37.14-3.79-15-40-8.47S26,57.55,26.39,61.87,28,79,55.41,92.7l3.42,4.68s4.33,9.38-5.22,18-12.26,2.88-12.26,2.88-.72-4.87,1.44-7.57,9.55-8.83,11.36-10.45,11-5.77,12.43-6,13.16-.18,14.6.54,7,4,8.12,7.21,1.8,7.93-3.25,11.35,1.44.55,2.53.37S97.05,110,92.9,101,79.74,85.67,63.16,90.71,37.74,104.05,33.6,109.46,31.25,128,42.43,127.85,65.5,116.67,65.86,107.3,66.22,94,57.93,87.11,26.21,64.39,47.84,47.27,84.61,25.63,101.91,27.8s7.57,17.85,6.13,19.11S84.71,73.45,61,58.45Z"/></g></g></svg>