<svg xmlns="http://www.w3.org/2000/svg" viewBox="0 0 146.09 146.09"><defs><style>.cls-1{fill:#80d0de;opacity:0;}.cls-2{fill:#f06187;}</style></defs><g id="Layer_2" data-name="Layer 2"><g id="Layer_1-2" data-name="Layer 1"><rect class="cls-1" width="146.09" height="146.09"/><path class="cls-2" d="M108.7,86.64c0,8.52.13,17,0,25.56a4.24,4.24,0,0,1-1.92,3.13c-3.48,1.75-7,3.7-10.78,4.54-10.17,2.26-20.42,4.14-30.7,5.88-8,1.35-16.14,2.25-24.21,3.4-.47.07-.89.52-1.33.8H37.28c0-8.31,0-16.62-.06-24.92,0-1.48.43-2.08,1.89-2.29,7.25-1,14.49-2.08,21.72-3.15,1-.15,2.05-.33,3.07-.51s2.21-.13,3.29-.34c10.43-2.07,20.89-4,31.25-6.35C102.26,91.52,106.22,90.22,108.7,86.64Z"/><path class="cls-2" d="M37.28,58.42c0-8.31,0-16.61-.05-24.92,0-1.36.4-2,1.78-2.22,5.18-.75,10.36-1.58,15.54-2.36,9.62-1.47,19.28-2.7,28.85-4.46a163.44,163.44,0,0,0,18-4.62c2.56-.77,4.85-2.43,7.3-3.7,0,.2.08.83.08,1.47,0,6.79-.18,13.58.09,20.35.13,3.41-.85,5.77-3.88,7.26-7.11,3.45-14.79,5-22.47,6.25-9.82,1.67-19.69,3-29.53,4.47C47.75,56.74,42.52,57.59,37.28,58.42Z"/><path class="cls-2" d="M108.7,50.91c0,8.56.1,17.12,0,25.68a4.62,4.62,0,0,1-1.4,2.61,18.81,18.81,0,0,1-2.76,2.14C99.08,82.94,93.68,85,88.1,86.05c-12.06,2.28-24.22,4.06-36.34,6-4.82.78-9.66,1.43-14.49,2.13,0-8.16.07-16.32-.07-24.47,0-2,.82-2.69,2.51-2.92l15.36-2.11,9.63-1.33a7.76,7.76,0,0,1,.79-.22,205.77,205.77,0,0,0,31.62-6C101.39,55.89,105.72,54.63,108.7,50.91Z"/></g></g></svg>