<svg xmlns="http://www.w3.org/2000/svg" viewBox="0 0 146.09 146.09"><defs><style>.cls-1{fill:#80d0de;opacity:0;}.cls-2{fill:#ffd767;}</style></defs><g id="Layer_2" data-name="Layer 2"><g id="Layer_1-2" data-name="Layer 1"><rect class="cls-1" width="146.09" height="146.09"/><path class="cls-2" d="M30.88,91.11a6,6,0,0,1,6-6H49a6,6,0,0,1,6,6v18.07a6,6,0,0,1-6,6H36.9a6,6,0,0,1-6-6ZM61,67a6,6,0,0,1,6-6h12a6,6,0,0,1,6,6v42.16a6,6,0,0,1-6,6H67a6,6,0,0,1-6-6ZM91.11,36.9a6,6,0,0,1,6-6h12a6,6,0,0,1,6,6v72.28a6,6,0,0,1-6,6h-12a6,6,0,0,1-6-6Z"/></g></g></svg>