<svg xmlns="http://www.w3.org/2000/svg" viewBox="0 0 146.09 146.09"><defs><style>.cls-1{fill:#80d0de;opacity:0;}.cls-2{fill:#fc9867;}</style></defs><g id="Layer_2" data-name="Layer 2"><g id="Layer_1-2" data-name="Layer 1"><rect class="cls-1" width="146.09" height="146.09"/><path class="cls-2" d="M125.1,121s-7.34-19.58-30.92-3.79S25.65,104.77,19.65,87.41c0,0,39.15,22.92,59.62,6.23,0,0-34.48-28-50.28-54.73,0,0,35.15,29.37,43.38,32.48,0,0-29.81-33.37-30.25-38,0,0,35.59,34.56,52.72,41.75,0,0,10.24-25.51-9.78-50.87,0,0,42.49,24.69,32,67.41C117.09,91.64,130.66,108.1,125.1,121Z"/></g></g></svg>