<svg xmlns="http://www.w3.org/2000/svg" viewBox="0 0 146.09 146.09"><defs><style>.cls-1{fill:#80d0de;opacity:0;}.cls-2{fill:#78dce8;}</style></defs><g id="Layer_2" data-name="Layer 2"><g id="Layer_1-2" data-name="Layer 1"><rect class="cls-1" width="146.09" height="146.09"/><path class="cls-2" d="M73.05,39.48q-22.38,0-28,22.38,8.4-11.19,19.58-8.39C68.91,54.53,72,57.62,75.31,61,80.8,66.6,87.15,73,101,73q22.38,0,28-22.37-8.38,11.19-19.58,8.39c-4.25-1.06-7.3-4.15-10.66-7.57C93.25,45.93,86.91,39.48,73.05,39.48ZM45.07,73q-22.36,0-28,22.38Q25.49,84.23,36.68,87c4.26,1.06,7.31,4.15,10.67,7.56,5.48,5.57,11.83,12,25.7,12q22.36,0,28-22.37-8.39,11.19-19.57,8.39c-4.26-1.06-7.3-4.15-10.67-7.57-5.48-5.56-11.83-12-25.69-12Z"/></g></g></svg>