<svg xmlns="http://www.w3.org/2000/svg" viewBox="0 0 146.09 146.09"><defs><style>.cls-1,.cls-2{fill:#80d0de;}.cls-1{opacity:0;}</style></defs><g id="Layer_2" data-name="Layer 2"><g id="Layer_1-2" data-name="Layer 1"><rect class="cls-1" width="146.09" height="146.09"/><polygon class="cls-2" points="16.11 41.03 16.11 54.45 28.76 54.45 28.76 105.06 55.22 105.06 55.22 54.83 67.1 54.83 67.1 41.03 16.11 41.03"/><path class="cls-2" d="M130,41.41h-38A11.79,11.79,0,0,0,80.14,53.2V68.35A11.79,11.79,0,0,0,91.93,80.14h14.66V92.79H80.14v11.88h38.05A11.79,11.79,0,0,0,130,92.88V80.81A11.79,11.79,0,0,0,118.19,69H102V53.68h28Z"/></g></g></svg>