<svg xmlns="http://www.w3.org/2000/svg" viewBox="0 0 311.48 311.48"><defs><style>.cls-1,.cls-2,.cls-3{fill:#00adee;}.cls-1{opacity:0.01;}.cls-3{opacity:0;}</style></defs><g id="Layer_2" data-name="Layer 2"><g id="Layer_1-2" data-name="Layer 1"><rect class="cls-1" width="311.48" height="311.48" rx="62.1"/><path class="cls-2" d="M123,133.48a4.44,4.44,0,0,1-5.17-4.65l2-31.87H77a21.6,21.6,0,0,0-18.7,32.4L137,265.67a21.6,21.6,0,0,0,37.41,0l78.7-136.31A21.59,21.59,0,0,0,234.44,97h-6.17L165,229.21a4.1,4.1,0,0,1-7.75-2.45l9.08-54.39a4.11,4.11,0,0,0-5.11-4.64l-11.18,3a4.44,4.44,0,0,1-5.47-5.25l6.84-30.63a4.44,4.44,0,0,0-4.17-5.4Z"/><path class="cls-3" d="M238.75,80.18l-5.14,10.75h-7.89L173.48,200.15a3.2,3.2,0,0,1-6-1.91l7.08-42.45a3.2,3.2,0,0,0-4-3.62l-8.73,2.32a3.46,3.46,0,0,1-4.27-4.09l5.34-23.91a3.46,3.46,0,0,0-4-4.16l-6.32,1.08a4.64,4.64,0,0,0-.9.06l-11.73,2a3.44,3.44,0,0,1-3.29-3.66l1.93-30.88H125.18l3.66-58.46a4.41,4.41,0,0,1,3.54-4.06L217.45,11.1a4.44,4.44,0,0,1,5.14,5.58L206.37,72.6a4.44,4.44,0,0,0,5.1,5.59L234,73.83A4.43,4.43,0,0,1,238.75,80.18Z"/><path class="cls-2" d="M226.86,88.54l-1.14,2.39L173.48,200.15a3.2,3.2,0,0,1-6-1.91l7.08-42.45a3.2,3.2,0,0,0-4-3.62l-8.73,2.32a3.46,3.46,0,0,1-4.27-4.09l5.34-23.91a3.46,3.46,0,0,0-4-4.16l-6.32,1.08-11.89,2a3.07,3.07,0,0,1-.74,0,3.44,3.44,0,0,1-3.29-3.66l1.93-30.88,2.48-39.62a3.47,3.47,0,0,1,2.76-3.18l66.39-13.5a3.45,3.45,0,0,1,4,4.35L201.59,82.63a3.45,3.45,0,0,0,4,4.35l17.55-3.39A3.45,3.45,0,0,1,226.86,88.54Z"/></g></g></svg>