<svg xmlns="http://www.w3.org/2000/svg" viewBox="0 0 146.09 146.09"><defs><style>.cls-1,.cls-2{fill:#ab9df2;}.cls-1{opacity:0;}</style></defs><g id="Layer_2" data-name="Layer 2"><g id="Layer_1-2" data-name="Layer 1"><rect class="cls-1" width="146.09" height="146.09"/><path class="cls-2" d="M73,104.45a45.77,45.77,0,1,1,45.77-45.77A45.83,45.83,0,0,1,73,104.45Zm0-83.57a37.81,37.81,0,1,0,37.81,37.8A37.85,37.85,0,0,0,73,20.88Z"/><path class="cls-2" d="M57.5,133.17H51.57a10.89,10.89,0,0,1,0-21.78H95.46a3.47,3.47,0,1,0,0-6.94H73v-8H95.46a11.43,11.43,0,0,1,0,22.86H51.57a2.93,2.93,0,0,0,0,5.86H57.5Z"/><rect class="cls-2" x="60.27" y="27.54" width="7.96" height="79.72" transform="translate(-28.84 65.17) rotate(-45)"/><rect class="cls-2" x="50.77" y="47.34" width="7.96" height="62.41" transform="translate(-39.5 61.72) rotate(-45)"/><path class="cls-2" d="M52.06,51.39l-8-.3C44.14,49.94,45.55,22.76,92,17l1,7.91C53.69,29.78,52.1,50.51,52.06,51.39Z"/><path class="cls-2" d="M62.53,62.42l-8-.26c0-1.15,1.45-28.33,47.85-34.07l1,7.9C63.69,40.91,62.54,62.2,62.53,62.42Z"/><path class="cls-2" d="M73.65,73.58l-8-.3c0-1.16,1.45-28.33,47.85-34.08l1,7.91C75.28,52,73.69,72.7,73.65,73.58Z"/><path class="cls-2" d="M84.76,84.7l-8-.31c0-.94,1.15-23.16,35.38-31.78l1.95,7.72C86,67.41,84.8,84,84.76,84.7Z"/></g></g></svg>