<svg xmlns="http://www.w3.org/2000/svg" viewBox="0 0 146.09 146.09"><defs><style>.cls-1,.cls-2{fill:#ab9df2;}.cls-1{opacity:0;}</style></defs><g id="Layer_2" data-name="Layer 2"><g id="Layer_1-2" data-name="Layer 1"><rect class="cls-1" width="146.09" height="146.09"/><polygon class="cls-2" points="20.03 27.18 64 27.18 58.31 49.04 20.03 49.04 20.03 27.18"/><polygon class="cls-2" points="123.96 27.18 123.96 49.04 70.64 49.04 76.33 27.18 123.96 27.18"/><polygon class="cls-2" points="20.03 61.5 55.22 61.5 49.52 83.36 20.03 83.36 20.03 61.5"/><polygon class="cls-2" points="123.96 61.5 123.96 83.36 61.85 83.36 67.55 61.5 123.96 61.5"/><polygon class="cls-2" points="20.03 97.04 46.12 97.04 40.41 118.91 20.03 118.91 20.03 97.04"/><polygon class="cls-2" points="123.96 97.04 123.96 118.91 52.74 118.91 58.44 97.04 123.96 97.04"/></g></g></svg>