<svg xmlns="http://www.w3.org/2000/svg" viewBox="0 0 146.09 146.09"><defs><style>.cls-1{fill:#80d0de;opacity:0;}.cls-2{fill:#ffd767;}</style></defs><g id="Layer_2" data-name="Layer 2"><g id="Layer_1-2" data-name="Layer 1"><rect class="cls-1" width="146.09" height="146.09"/><path class="cls-2" d="M101.56,16.81H42.82A15.07,15.07,0,0,0,27.75,31.89v76.86a15.08,15.08,0,0,0,15.07,15.08H48.4V114.7H42.82a6,6,0,0,1-6-6V31.89a6,6,0,0,1,6-5.95h58.74a6,6,0,0,1,6,5.95v76.86a6,6,0,0,1-6,6H96v9.13h5.58a15.08,15.08,0,0,0,15.08-15.08V31.89A15.08,15.08,0,0,0,101.56,16.81Z"/><polygon class="cls-2" points="72.5 47.45 72.5 57.87 82.91 57.87 82.91 68.89 72.5 68.89 72.5 79.3 82.91 79.3 82.91 90.33 71.89 90.33 71.89 79.91 61.47 79.91 61.47 68.89 71.89 68.89 71.89 58.47 61.47 58.47 61.47 47.45 71.89 47.45 71.89 37.03 61.47 37.03 61.47 26.01 72.5 26.01 72.5 36.42 82.91 36.42 82.91 47.45 72.5 47.45"/><path class="cls-2" d="M81.83,97.91H62.55a8,8,0,0,0-8,8V121.3a8,8,0,0,0,8,8H81.83a8,8,0,0,0,8-8V105.89A8,8,0,0,0,81.83,97.91Zm1.08,15.44H61.47V105.5H82.91Z"/></g></g></svg>