<svg xmlns="http://www.w3.org/2000/svg" viewBox="0 0 146.09 146.09"><defs><style>.cls-1,.cls-2{fill:#78dce8;}.cls-1{opacity:0;}</style></defs><g id="Layer_2" data-name="Layer 2"><g id="Layer_1-2" data-name="Layer 1"><rect class="cls-1" width="146.09" height="146.09"/><path class="cls-2" d="M76.94,120.92V80.13A4.82,4.82,0,0,1,79.36,76l35.32-20.39a4.84,4.84,0,0,1,7.26,4.18v40.79a4.83,4.83,0,0,1-2.42,4.19L84.2,125.11A4.84,4.84,0,0,1,76.94,120.92Z"/><path class="cls-2" d="M35.3,40.43,70.63,20a4.84,4.84,0,0,1,4.83,0l35.33,20.4a4.83,4.83,0,0,1,0,8.37L75.47,69.2a4.86,4.86,0,0,1-4.84,0L35.3,48.8A4.83,4.83,0,0,1,35.3,40.43Z"/><path class="cls-2" d="M24.15,100.53V59.74a4.83,4.83,0,0,1,7.25-4.18L66.73,76a4.84,4.84,0,0,1,2.41,4.19v40.78a4.83,4.83,0,0,1-7.25,4.19L26.57,104.72A4.83,4.83,0,0,1,24.15,100.53Z"/></g></g></svg>