<svg xmlns="http://www.w3.org/2000/svg" viewBox="0 0 146.09 146.09"><defs><style>.cls-1,.cls-2{fill:#b8d663;}.cls-1{opacity:0;}</style></defs><g id="Layer_2" data-name="Layer 2"><g id="Layer_1-2" data-name="Layer 1"><rect class="cls-1" width="146.09" height="146.09"/><path class="cls-2" d="M76.18,30.38c-1.05-.07-2.1-.11-3.15-.11V24.15c1.2,0,2.41.05,3.6.14Zm12.25,2.75a43.48,43.48,0,0,0-6-1.82l1.34-6a48.7,48.7,0,0,1,6.88,2.09Zm8.37,4.34c-.87-.58-1.77-1.13-2.68-1.65l3-5.32a50,50,0,0,1,6,4l-3.76,4.82c-.83-.64-1.68-1.26-2.56-1.84ZM108,48.41a42.25,42.25,0,0,0-4-4.86l4.43-4.22A51.63,51.63,0,0,1,113,44.89Zm4.55,8.27c-.4-1-.84-1.93-1.31-2.86l5.46-2.76a48.74,48.74,0,0,1,2.75,6.65l-5.81,1.92c-.33-1-.69-2-1.09-3M115.8,72a43.93,43.93,0,0,0-.61-6.27l6-1a52,52,0,0,1,.71,7.16Zm-.8,9.4c.2-1,.37-2.08.49-3.12l6.07.75a48.18,48.18,0,0,1-1.4,7.06l-5.9-1.63c.29-1,.53-2,.74-3.06m-5.82,14.54a44.78,44.78,0,0,0,3-5.55l5.59,2.47a49,49,0,0,1-3.4,6.35Zm-5.89,7.36c.74-.74,1.46-1.51,2.14-2.31l4.63,4c-.78.91-1.6,1.79-2.45,2.64Z"/><path class="cls-2" d="M107.61,110.28l-7-7L102,102c.72-.71,1.39-1.45,2-2.21l1.23-1.42,7.47,6.44-1.22,1.42c-.8.93-1.66,1.85-2.54,2.74Zm7.32-8.49-8.34-5.27,1-1.58a42.25,42.25,0,0,0,2.84-5.31l.76-1.71,9,4-.76,1.71a52,52,0,0,1-3.52,6.59Zm-3.2-6.45,2,1.26c.53-.91,1-1.85,1.5-2.8l-2.17-1C112.64,93.69,112.2,94.52,111.73,95.34Zm9.73-6.94L112,85.76l.51-1.81c.27-1,.5-1.93.7-2.92s.35-2,.47-3l.23-1.87,9.79,1.21-.23,1.86A49.52,49.52,0,0,1,122,86.59Zm-4.92-5.25,2.27.63c.25-1,.45-2.08.63-3.12l-2.35-.29c-.08.46-.16.93-.25,1.39h0C116.74,82.23,116.64,82.69,116.54,83.15ZM114,73.92l0-1.88a41.62,41.62,0,0,0-.59-6L113,64.21l9.71-1.68.32,1.85a52.4,52.4,0,0,1,.74,7.41l0,1.88Zm3.34-6.65c.12.93.21,1.87.28,2.81L120,70c-.07-1-.18-2.11-.32-3.15ZM112.46,62l-.59-1.78c-.31-1-.66-1.89-1-2.82s-.8-1.84-1.25-2.73L108.74,53l8.8-4.43.84,1.67a51.3,51.3,0,0,1,2.86,6.91l.58,1.78Zm1.27-7.33c.19.43.38.87.56,1.3s.35.87.52,1.32l2.25-.75c-.37-1-.78-2-1.22-2.93ZM107.56,51l-1.08-1.53a40.52,40.52,0,0,0-3.82-4.65l-1.29-1.36,7.14-6.8L109.8,38a52.48,52.48,0,0,1,4.74,5.77l1.08,1.53Zm-.92-7.38c.62.71,1.22,1.44,1.79,2.18l1.94-1.36c-.65-.84-1.32-1.66-2-2.45Zm-7-1.69L98.21,40.8c-.8-.61-1.61-1.21-2.45-1.76l-.51-.35c-.67-.43-1.35-.84-2-1.24l-1.64-.92L96.43,28l1.63.92A51.72,51.72,0,0,1,104.27,33l1.48,1.15Zm-1-5.46.33.24,1.45-1.87c-.85-.62-1.74-1.21-2.64-1.77l-1.17,2.06c.4.25.8.5,1.19.76Zm-9.18-.94-1.74-.67A41.54,41.54,0,0,0,82,33.13l-1.83-.41,2.16-9.62,1.83.41a52.15,52.15,0,0,1,7.15,2.17l1.74.68Zm-4.86-5.62c.91.24,1.81.52,2.7.82l.86-2.21c-1-.34-2-.65-3-.93Zm-6.73,2.46L76,32.25c-1-.07-2-.11-3-.11H71.16V22.28H73c1.26,0,2.51,0,3.74.14l1.87.14Z"/><path class="cls-2" d="M73,30.27a42.78,42.78,0,1,0,30.26,73l4.32,4.32A48.9,48.9,0,1,1,73,24.15Z"/><path class="cls-2" d="M73,123.8A50.76,50.76,0,1,1,73,22.28h1.89v9.86H73A40.91,40.91,0,0,0,73,114h0A40.65,40.65,0,0,0,102,102l1.33-1.33,7,7L108.93,109A50.6,50.6,0,0,1,73,123.8ZM71.16,26.06a47,47,0,1,0,33.78,81.54l-1.68-1.68A44.33,44.33,0,0,1,73,117.7h0a44.65,44.65,0,0,1-1.88-89.27Z"/><path class="cls-2" d="M70,42.49a3.05,3.05,0,0,1,3,3.06V77.39L92.88,88.73a3.06,3.06,0,0,1-3,5.31L68.46,81.81a3,3,0,0,1-1.54-2.65V45.55A3.06,3.06,0,0,1,70,42.49"/><path class="cls-2" d="M91.31,96.28a4.86,4.86,0,0,1-2.35-.6L67.53,83.44a5,5,0,0,1-2.48-4.28V45.55a4.93,4.93,0,1,1,9.86,0V76.3l18.9,10.81a4.92,4.92,0,0,1-2.5,9.17ZM70,44.36a1.19,1.19,0,0,0-1.19,1.19V79.16a1.19,1.19,0,0,0,.6,1L90.78,92.41a1.18,1.18,0,0,0,1.14-2.07L71.16,78.47V45.55A1.18,1.18,0,0,0,70,44.36Z"/></g></g></svg>