<svg xmlns="http://www.w3.org/2000/svg" viewBox="0 0 146.09 146.09"><defs><style>.cls-1,.cls-2{fill:#b8d663;}.cls-1{opacity:0;}</style></defs><g id="Layer_2" data-name="Layer 2"><g id="Layer_1-2" data-name="Layer 1"><rect class="cls-1" width="146.09" height="146.09"/><path class="cls-2" d="M73.05,24.72a48.33,48.33,0,0,0-.18,96.65L86.16,90.1,71.94,53.81H84.25L93,77.45l8.35-23.64h12L86.32,119.53A48.34,48.34,0,0,0,73.05,24.72Zm-4.3,42H67.09c-.45-.39-1-.84-1.64-1.36a15.87,15.87,0,0,0-5.28-2.72,13,13,0,0,0-3.71-.47,8.9,8.9,0,0,0-7.2,3q-2.52,3-2.52,8.09t2.58,8Q51.91,84,56.65,84a14.81,14.81,0,0,0,4-.5,12.81,12.81,0,0,0,2.94-1.19,13.12,13.12,0,0,0,2-1.37c.56-.48,1.08-.94,1.56-1.4h1.66v10A32.05,32.05,0,0,1,63,91.56a27.08,27.08,0,0,1-6.66.76,31.51,31.51,0,0,1-8.74-1.14,19.14,19.14,0,0,1-6.89-3.52,15.87,15.87,0,0,1-4.49-6,20.7,20.7,0,0,1-1.6-8.46,21,21,0,0,1,1.71-8.83,16.7,16.7,0,0,1,4.77-6.15,19.59,19.59,0,0,1,6.84-3.39,30.17,30.17,0,0,1,8-1.07,27.81,27.81,0,0,1,6.91.81,32.29,32.29,0,0,1,5.89,2.12Z"/></g></g></svg>