<svg xmlns="http://www.w3.org/2000/svg" viewBox="0 0 146.09 146.09"><defs><style>.cls-1{fill:#80d0de;opacity:0;}.cls-2{fill:#ff6695;}</style></defs><g id="Layer_2" data-name="Layer 2"><g id="Layer_1-2" data-name="Layer 1"><rect class="cls-1" width="146.09" height="146.09"/><path class="cls-2" d="M61.38,28.65H72.2V39.48H61.38V50.94H72.2V61.78H61.38V73.23H72.2V84.07H61.38V95.53H72.2v10.82H61.38v11.47H72.2v10.64H42A15.69,15.69,0,0,1,26.3,112.78V33.31A15.69,15.69,0,0,1,42,17.63h19.4Z"/><path class="cls-2" d="M118.74,33.31v79.47a15.69,15.69,0,0,1-15.69,15.68H83.67V117.19H72.83V106.35H83.67V94.9H72.83V84.07H83.67V72.6H72.83V61.78H83.67V50.31H72.83V39.48H83.67V28H72.83V17.63h30.22A15.69,15.69,0,0,1,118.74,33.31Z"/></g></g></svg>