<svg xmlns="http://www.w3.org/2000/svg" viewBox="0 0 146.09 146.09"><defs><style>.cls-1,.cls-2{fill:#ab9df2;}.cls-1{opacity:0;}</style></defs><g id="Layer_2" data-name="Layer 2"><g id="Layer_1-2" data-name="Layer 1"><rect class="cls-1" width="146.09" height="146.09"/><path class="cls-2" d="M109.1,30.39H36.47A17.26,17.26,0,0,0,19.21,47.65V98.43a17.26,17.26,0,0,0,17.26,17.26H109.1a17.26,17.26,0,0,0,17.26-17.26V47.65A17.26,17.26,0,0,0,109.1,30.39Zm7.26,68a7.27,7.27,0,0,1-4.9,6.86c-3.47-5.68-11.65-16.68-16-22.49A4.42,4.42,0,0,0,89,82.14c-2.24,2-5.07,4.44-7.06,6.14a4.59,4.59,0,0,1-6.63-.71L54.85,60.7A4.57,4.57,0,0,0,48,60.23L29.21,79V47.65a7.28,7.28,0,0,1,7.26-7.26H109.1a7.27,7.27,0,0,1,7.26,7.26Z"/><circle class="cls-2" cx="98.25" cy="58.4" r="9.13"/></g></g></svg>