<svg xmlns="http://www.w3.org/2000/svg" viewBox="0 0 146.09 146.09"><defs><style>.cls-1{fill:#80d0de;opacity:0;}.cls-2,.cls-3{fill:#ffd767;}.cls-3{stroke:#ffd767;stroke-miterlimit:10;stroke-width:3px;}</style></defs><g id="Layer_2" data-name="Layer 2"><g id="Layer_1-2" data-name="Layer 1"><rect class="cls-1" width="146.09" height="146.09"/><path class="cls-2" d="M30.81,79.58H90.62A3.39,3.39,0,0,1,94,83.47L88.16,122a5.76,5.76,0,0,1-5.7,4.91H48.26a5.77,5.77,0,0,1-5.38-3.67l-15.22-39A3.39,3.39,0,0,1,30.81,79.58Z"/><path class="cls-3" d="M106.28,119.4H79.21v-5.85h27.07a2.83,2.83,0,0,0,2.69-1.92l5.31-15.44a2.86,2.86,0,0,0-2.69-3.77h-29V86.57h29a8.7,8.7,0,0,1,8.23,11.53l-5.31,15.43A8.7,8.7,0,0,1,106.28,119.4Z"/><path class="cls-3" d="M53.5,73.21h0a2.93,2.93,0,0,1-2.92-2.93V62a9,9,0,0,1,9-9H88.78A4.23,4.23,0,0,0,93,48.78V42.19A4.23,4.23,0,0,0,88.78,38H76.09a9,9,0,0,1-9-9v-6.8a2.93,2.93,0,0,1,2.93-2.93h0A2.93,2.93,0,0,1,73,22.19v5.69A4.23,4.23,0,0,0,77.2,32.1H89.9a9,9,0,0,1,9,9V49.9a9,9,0,0,1-9,9H60.66a4.22,4.22,0,0,0-4.23,4.22v7.19A2.93,2.93,0,0,1,53.5,73.21Z"/></g></g></svg>