<svg xmlns="http://www.w3.org/2000/svg" viewBox="0 0 135.13 84.76"><defs><style>.cls-1{fill:#ffd767;}</style></defs><g id="Layer_2" data-name="Layer 2"><g id="Layer_1-2" data-name="Layer 1"><path class="cls-1" d="M135.13,59.3A25.46,25.46,0,0,1,90.87,76.47a28,28,0,0,0,2-3.06,28.91,28.91,0,0,0,0-28.23,30.73,30.73,0,0,0-2-3.06A25.46,25.46,0,0,1,135.13,59.3Z"/><path class="cls-1" d="M93,59.3a25.26,25.26,0,0,1-2.44,10.88,25.3,25.3,0,0,1-4.23,6.29,25.45,25.45,0,0,1-37.59,0,28,28,0,0,0,2-3.06,28.91,28.91,0,0,0,0-28.23,30.73,30.73,0,0,0-2-3.06,25.45,25.45,0,0,1,37.59,0,25.3,25.3,0,0,1,4.23,6.29A25.41,25.41,0,0,1,93,59.3Z"/><path class="cls-1" d="M50.93,59.3a25.26,25.26,0,0,1-2.44,10.88,25.62,25.62,0,0,1-4.23,6.3,25.47,25.47,0,1,1,0-34.37,25.62,25.62,0,0,1,4.23,6.3A25.41,25.41,0,0,1,50.93,59.3Z"/><polygon class="cls-1" points="101.35 31.36 33.78 31.36 67.56 0 101.35 31.36"/></g></g></svg>