<svg xmlns="http://www.w3.org/2000/svg" viewBox="0 0 146.61 146.61"><defs><style>.cls-1{fill:#ffd767;}</style></defs><g id="Layer_2" data-name="Layer 2"><g id="Layer_1-2" data-name="Layer 1"><path class="cls-1" d="M0,0V146.61H146.61V0ZM73.89,102.13a42,42,0,0,1-.53,6.8A27.08,27.08,0,0,1,71.63,115a18.32,18.32,0,0,1-7.85,8.8c-3.52,2-8.27,3.07-14.1,3.07a38.65,38.65,0,0,1-5.48-.38,27.73,27.73,0,0,1-5.14-1.24,26.34,26.34,0,0,1-4.34-1.72,28.6,28.6,0,0,1-3.4-2.06l-1-.7,6.13-14.38,4.1,2.21a18.26,18.26,0,0,0,2.56,1.13,11.81,11.81,0,0,0,2.66.81,17.56,17.56,0,0,0,2.87.23c2.43,0,4.16-.65,5.31-2s1.78-3.86,1.78-7.36V51.53H73.89Zm54.17,8.05a22.1,22.1,0,0,1-2.3,5.6,21.51,21.51,0,0,1-9.07,8.21c-3.84,1.9-8.7,2.87-14.43,2.87a57.3,57.3,0,0,1-6.57-.37,27,27,0,0,1-5.9-1.36c-1.78-.61-3.37-1.21-4.72-1.76a23.17,23.17,0,0,1-3.67-1.87l-1-.64,5.5-15.47,1.64,1.29a13.78,13.78,0,0,0,2.81,1.71,29.87,29.87,0,0,0,3.47,1.31,20.5,20.5,0,0,0,3.91,1,28.36,28.36,0,0,0,4.23.3,16.68,16.68,0,0,0,4-.42,5.36,5.36,0,0,0,2.42-1.24,5.92,5.92,0,0,0,1.4-1.84,5.47,5.47,0,0,0,.47-2.37,6.29,6.29,0,0,0-.29-1.9,13.55,13.55,0,0,0-.73-1.84,14.93,14.93,0,0,0-3.71-3.42,55.54,55.54,0,0,0-7.31-4.07q-2.28-1.19-4.3-2.49c-1.37-.88-2.66-1.78-3.84-2.69A22.1,22.1,0,0,1,84,81.85a19.08,19.08,0,0,1-2.24-9.49,22.68,22.68,0,0,1,.82-6.19,22,22,0,0,1,2.36-5.43,21.22,21.22,0,0,1,8.74-7.93,28.64,28.64,0,0,1,13-2.82,48.45,48.45,0,0,1,5.65.32,35.79,35.79,0,0,1,5.08,1q2.39.76,4.42,1.6a33.72,33.72,0,0,1,3.8,1.82l1.12.63-5.6,14.89-1.55-1a24.18,24.18,0,0,0-5.25-2.41,21,21,0,0,0-6.54-1c-2.72,0-4.7.47-5.89,1.38a4.28,4.28,0,0,0-1.61,3.67,6.13,6.13,0,0,0,.23,1.75,4.49,4.49,0,0,0,.69,1.34,13.87,13.87,0,0,0,3.52,2.84c1.72,1,4,2.32,6.65,3.8,1.9,1,3.72,2.06,5.37,3A26.71,26.71,0,0,1,121.19,87a20.52,20.52,0,0,1,7.64,16.85A25.08,25.08,0,0,1,128.06,110.18Z"/></g></g></svg>