<svg xmlns="http://www.w3.org/2000/svg" viewBox="0 0 146.09 146.09"><defs><style>.cls-1{fill:#80d0de;opacity:0;}.cls-2{fill:#b8d663;}</style></defs><g id="Layer_2" data-name="Layer 2"><g id="Layer_1-2" data-name="Layer 1"><rect class="cls-1" width="146.09" height="146.09"/><path class="cls-2" d="M77.85,60.87H17.78V46H89A30.82,30.82,0,0,0,77.85,60.87Z"/><path class="cls-2" d="M76.12,71.05a30.71,30.71,0,0,0,3.4,14.08H17.78V70.26H76.13C76.12,70.52,76.12,70.78,76.12,71.05Z"/><polygon class="cls-2" points="89.78 96.64 89.78 109.39 17.78 109.39 17.78 94.52 86.97 94.52 89.78 96.64"/><path class="cls-2" d="M89.78,96.64A29.11,29.11,0,0,1,87,94.52Z"/><rect class="cls-2" x="17.78" y="21.74" width="72" height="14.87"/><path class="cls-2" d="M130.31,70.92a23.39,23.39,0,0,1-12.77,20.85v34.58H96.28V91.77A23.39,23.39,0,0,1,83.52,70.92c0-.24,0-.5,0-.75a23.08,23.08,0,0,1,2.06-8.9,23.4,23.4,0,0,1,44.71,9.65Z"/></g></g></svg>