<svg xmlns="http://www.w3.org/2000/svg" viewBox="0 0 146.09 146.09"><defs><style>.cls-1{fill:#80d0de;opacity:0;}.cls-2{fill:#ffd767;}</style></defs><g id="Layer_2" data-name="Layer 2"><g id="Layer_1-2" data-name="Layer 1"><rect class="cls-1" width="146.09" height="146.09"/><path class="cls-2" d="M100.57,57.85H96.43V45.43a24.86,24.86,0,1,0-49.72,0V57.85H42.09A14.27,14.27,0,0,0,27.83,72.14v39.13a14.25,14.25,0,0,0,14.26,14.26h58.48a14.27,14.27,0,0,0,14.29-14.26V72.14A14.29,14.29,0,0,0,100.57,57.85ZM74.78,103.76v10H68.12V103.6a12.82,12.82,0,1,1,6.66.16ZM85.89,57.85H57.22v-13A13.22,13.22,0,0,1,70.45,31.61h2.24a13.2,13.2,0,0,1,13.2,13.21Z"/></g></g></svg>