<svg xmlns="http://www.w3.org/2000/svg" viewBox="0 0 146.09 146.09"><defs><style>.cls-1{fill:#80d0de;opacity:0;}.cls-2{fill:#fc9867;}</style></defs><g id="Layer_2" data-name="Layer 2"><g id="Layer_1-2" data-name="Layer 1"><rect class="cls-1" width="146.09" height="146.09"/><path class="cls-2" d="M73,124.92A51.88,51.88,0,1,1,124.92,73,51.93,51.93,0,0,1,73,124.92Zm0-96.75A44.88,44.88,0,1,0,117.92,73,44.92,44.92,0,0,0,73,28.17Z"/><path class="cls-2" d="M117.82,99H28.27L73,21.46ZM40.39,92h65.3L73,35.46Z"/><path class="cls-2" d="M94.15,98.35H53.05V57h41.1Zm-34.1-7h27.1V64H60.05Z"/><path class="cls-2" d="M73.71,93.61A15.93,15.93,0,1,1,89.63,77.69,15.94,15.94,0,0,1,73.71,93.61Zm0-24.85a8.93,8.93,0,1,0,8.92,8.93A8.94,8.94,0,0,0,73.71,68.76Z"/></g></g></svg>