<svg xmlns="http://www.w3.org/2000/svg" viewBox="0 0 146.09 146.09"><defs><style>.cls-1,.cls-2{fill:#78dce8;}.cls-1{opacity:0;}</style></defs><g id="Layer_2" data-name="Layer 2"><g id="Layer_1-2" data-name="Layer 1"><rect class="cls-1" width="146.09" height="146.09"/><path class="cls-2" d="M115.72,37.79H97.14V77.24H58V116.3a11.4,11.4,0,0,0,11.39,11.41H96.5a11.41,11.41,0,0,0,11.4-11.41V97H78.44V87.48h37.28a11.39,11.39,0,0,0,11.39-11.39V49.19A11.39,11.39,0,0,0,115.72,37.79ZM92.53,106.71a6.15,6.15,0,1,1-6.16,6.14A6.14,6.14,0,0,1,92.53,106.71Z"/><path class="cls-2" d="M30.27,108.29H48.85V68.84H88V29.78a11.4,11.4,0,0,0-11.39-11.4H49.49a11.41,11.41,0,0,0-11.4,11.4V49.12H67.55V58.6H30.27A11.4,11.4,0,0,0,18.88,70V96.9A11.38,11.38,0,0,0,30.27,108.29ZM53.46,39.38a6.15,6.15,0,1,1,6.16-6.14A6.15,6.15,0,0,1,53.46,39.38Z"/></g></g></svg>