<svg xmlns="http://www.w3.org/2000/svg" viewBox="0 0 147.09 147.09"><defs><style>.cls-1,.cls-2{fill:#78dce8;stroke:#78dce8;stroke-miterlimit:10;}.cls-1{opacity:0;}.cls-2{stroke-width:4px;}</style></defs><g id="Layer_2" data-name="Layer 2"><g id="Layer_1-2" data-name="Layer 1"><rect class="cls-1" x="0.5" y="0.5" width="146.09" height="146.09"/><path class="cls-2" d="M85.85,105.13Q74.29,116,71.47,116a1.67,1.67,0,0,1-1.31-.82,3.41,3.41,0,0,1-.62-2.07q0-6.4,9.27-37.53,5.68-19,5.69-21.57A4.07,4.07,0,0,0,83,50.68a6.49,6.49,0,0,0-4.29-1.23c-3.38,0-7.47,1.35-12.3,4.08s-10.14,7.28-16,13.72l3.85,3q7.72-7.55,10-8.94a7.8,7.8,0,0,1,4-1.42c1,0,1.58.59,1.58,1.77a12.84,12.84,0,0,1-.61,3.59Q56,107.85,56,118.81a7.52,7.52,0,0,0,1.79,5.35,6.35,6.35,0,0,0,4.87,1.93q3.51,0,9-3.16c3.67-2.09,9.53-6.93,17.54-14.46Z"/><ellipse class="cls-2" cx="83.77" cy="31.09" rx="10.12" ry="9.53" transform="translate(35.02 105.97) rotate(-77.29)"/></g></g></svg>