<svg xmlns="http://www.w3.org/2000/svg" viewBox="0 0 146.09 146.09"><defs><style>.cls-1,.cls-2{fill:#fc9867;}.cls-1{opacity:0;}</style></defs><g id="Layer_2" data-name="Layer 2"><g id="Layer_1-2" data-name="Layer 1"><rect class="cls-1" width="146.09" height="146.09"/><path class="cls-2" d="M89.05,80.76a8.14,8.14,0,0,0,8.16-8.16V66.92A20.91,20.91,0,0,0,76.29,46H44v54.09H61.59V82.58l8.16.16,9.43,17.35h20.6ZM70.45,73.9h-9V56.64h9a8.63,8.63,0,0,1,0,17.26Z"/><path class="cls-2" d="M132.72,62.21C131,60.43,119.43,53,119.43,53l1.38-14.17-13.09-2.26-2-13.29L91,24.44,82.52,13.08,71.88,20.69l-12-7.61-9,11.69L36.39,22.62,34.35,37,21,38V53L10.42,61.46,18.69,73l-8.27,11.5L21.36,91.6l-1.07,14.81,13.2,3.22,2.24,12.77L50,121.32,58.92,133l11.36-8.36L82.63,133l7.72-11.58,15.66,2V107.7h14.47V91.18l10-10-7.72-7.72V72.19S134.5,64,132.72,62.21Zm-61.7,53a42.25,42.25,0,1,1,42.25-42.25A42.25,42.25,0,0,1,71,115.18Z"/></g></g></svg>