<svg xmlns="http://www.w3.org/2000/svg" viewBox="0 0 146.09 146.09"><defs><style>.cls-1{fill:#80d0de;opacity:0;}.cls-2{fill:#b8d663;}</style></defs><g id="Layer_2" data-name="Layer 2"><g id="Layer_1-2" data-name="Layer 1"><rect class="cls-1" width="146.09" height="146.09"/><path class="cls-2" d="M22.78,32.16v81.77a9.37,9.37,0,0,0,9.38,9.37h81.77a9.36,9.36,0,0,0,9.37-9.37V32.16a9.37,9.37,0,0,0-9.37-9.38H32.16A9.38,9.38,0,0,0,22.78,32.16ZM53.6,113.05H33.15V92.6H53.6Zm0-29.78H33.15V62.82H53.6Zm0-29.79H33.15V33H53.6Zm59.33,59.57h-50V92.6h50Zm0-29.78h-50V62.82h50Zm0-29.79h-50V33h50Z"/></g></g></svg>