<svg xmlns="http://www.w3.org/2000/svg" viewBox="0 0 146.09 146.09"><defs><style>.cls-1{fill:#80d0de;opacity:0;}.cls-2{fill:#b8d663;}</style></defs><g id="Layer_2" data-name="Layer 2"><g id="Layer_1-2" data-name="Layer 1"><rect class="cls-1" width="146.09" height="146.09"/><path class="cls-2" d="M97.09,27.33H35.78A12.21,12.21,0,0,0,23.57,39.55v67a12.21,12.21,0,0,0,12.21,12.21H110.3a12.22,12.22,0,0,0,12.22-12.21V52.76A25.43,25.43,0,0,0,97.09,27.33Zm-26.93,82.8A2.84,2.84,0,0,1,67.32,113H36.6a7.49,7.49,0,0,1-7.49-7.49V92.88A2.83,2.83,0,0,1,31.94,90H67.32a2.84,2.84,0,0,1,2.84,2.84Zm0-28.46a2.84,2.84,0,0,1-2.84,2.83H31.94a2.83,2.83,0,0,1-2.83-2.83V64.41a2.83,2.83,0,0,1,2.83-2.83H67.32a2.84,2.84,0,0,1,2.84,2.83Zm0-28.46A2.83,2.83,0,0,1,67.32,56H31.94a2.82,2.82,0,0,1-2.83-2.83V40.62a7.49,7.49,0,0,1,7.49-7.49H67.32A2.83,2.83,0,0,1,70.16,36ZM117,105.47a7.49,7.49,0,0,1-7.49,7.49H78.76a2.83,2.83,0,0,1-2.83-2.83V92.88A2.83,2.83,0,0,1,78.76,90h35.39A2.84,2.84,0,0,1,117,92.88Zm0-23.8a2.83,2.83,0,0,1-2.83,2.83H78.76a2.83,2.83,0,0,1-2.83-2.83V64.41a2.83,2.83,0,0,1,2.83-2.83h35.39A2.83,2.83,0,0,1,117,64.41ZM114.15,56H78.76a2.82,2.82,0,0,1-2.83-2.83V36a2.82,2.82,0,0,1,2.83-2.83H96.89A20.06,20.06,0,0,1,117,53.21,2.83,2.83,0,0,1,114.15,56Z"/></g></g></svg>