<svg xmlns="http://www.w3.org/2000/svg" viewBox="0 0 146.09 146.09"><defs><style>.cls-1{fill:#80d0de;opacity:0;}.cls-2{fill:#ffd767;}</style></defs><g id="Layer_2" data-name="Layer 2"><g id="Layer_1-2" data-name="Layer 1"><rect class="cls-1" width="146.09" height="146.09"/><path class="cls-2" d="M67.93,81.79S40.7,77.73,36.54,106.93,79,117.77,84,112.82s17.48-20,12-35.18-9.9-29.85-12-32.89.93-14.35,4.47-14.35,16-1.21,6.12,14.35c0,0,11.3,3.58,14.6-6.09S103,22.16,94.54,23.1,71.46,25,68.4,47.23c0,0,.35,18.77,6.65,31.82,0,0,9.36,31.89-17.72,33.77,0,0-3.77,1.41-4.71-7.3S67.93,81.79,67.93,81.79Z"/></g></g></svg>