<svg xmlns="http://www.w3.org/2000/svg" viewBox="0 0 146.09 146.09"><defs><style>.cls-1,.cls-2{fill:#ff6695;}.cls-1{opacity:0;}</style></defs><g id="Layer_2" data-name="Layer 2"><g id="Layer_1-2" data-name="Layer 1"><rect class="cls-1" width="146.09" height="146.09"/><path class="cls-2" d="M51.57,120.89a31.31,31.31,0,0,1-19.08-12,29.43,29.43,0,0,1-6.1-21.61A26.63,26.63,0,0,1,33.28,71.6a3.4,3.4,0,0,0,.87-3.49,26.89,26.89,0,0,1,.14-12A27.75,27.75,0,0,1,44.55,40a26.83,26.83,0,0,1,7.18-3.83c4-1.49,7.94-3,11.94-4.47,5.88-2.13,11.76-4.26,17.69-6.24a22.05,22.05,0,0,1,9.07-.87,32.83,32.83,0,0,1,10.76,2.7,31.88,31.88,0,0,1,12.58,10.14,30.61,30.61,0,0,1,5.66,12.93,29.09,29.09,0,0,1-5.07,22.29,20,20,0,0,1-2.11,2.48,1.71,1.71,0,0,0-.48,1.82,29.21,29.21,0,0,1,.7,8.39,28,28,0,0,1-7.36,17.45,24.76,24.76,0,0,1-9.93,6.76c-9.14,3.36-18.29,6.68-27.41,10.07a28.36,28.36,0,0,1-12.56,1.8C53.84,121.33,52.48,121,51.57,120.89Zm42.06-84a18,18,0,0,0-10.23.38c-4.65,1.69-9.31,3.37-14,5.09-4.34,1.61-8.69,3.22-13,4.91A17.82,17.82,0,0,0,49.51,52a16.3,16.3,0,0,0-4.07,10.38,18.24,18.24,0,0,0,3.78,11.91c4.57,6.27,13.4,9.4,20.94,6.64,3.56-1.3,7.15-2.53,10.73-3.78a4.31,4.31,0,0,1,1.17-.26,5.48,5.48,0,0,1,5.7,4,4.85,4.85,0,0,1-1.53,5.28A10.13,10.13,0,0,1,84,87.22c-4.13,1.6-8.26,3.21-12.43,4.74-4.66,1.7-9.35,3.33-14,5a3.5,3.5,0,0,1-1.35.24A5.62,5.62,0,0,1,51.31,94,5.2,5.2,0,0,1,51,90c.22-.85.14-.86-.57-1.32-1.32-.84-2.63-1.68-3.89-2.6a31.91,31.91,0,0,1-4.91-4.6c-.4-.45-.55-.44-.83,0A19.45,19.45,0,0,0,38.5,87a17,17,0,0,0,.23,8.89,19,19,0,0,0,7.09,10.25,18.15,18.15,0,0,0,8.85,3.56A16.82,16.82,0,0,0,62.1,109c3.72-1.28,7.41-2.65,11.1-4,5.35-2,10.68-4,16-6a18,18,0,0,0,5-2.6,16.28,16.28,0,0,0,6.49-13.54,18.12,18.12,0,0,0-8-15.08A17.66,17.66,0,0,0,76,65.23c-3.53,1.19-7,2.49-10.57,3.71a5.44,5.44,0,0,1-7.11-3.77,4.79,4.79,0,0,1,2.92-5.93c.83-.33,1.66-.69,2.5-1,3.34-1.27,6.67-2.56,10-3.78,4.77-1.74,9.56-3.43,14.35-5.12a5.49,5.49,0,0,1,1.81-.39A5.71,5.71,0,0,1,95.16,53,5.93,5.93,0,0,1,95,56.25a.85.85,0,0,0,.48,1.07,33.63,33.63,0,0,1,4,2.69c1.69,1.41,3.23,3,4.82,4.52.47.45.63.5.9,0a18,18,0,0,0,2.66-7A19.1,19.1,0,0,0,93.63,36.88Z"/></g></g></svg>