<svg xmlns="http://www.w3.org/2000/svg" viewBox="0 0 146.61 146.61"><defs><style>.cls-1{fill:#46bde8;}</style></defs><g id="Layer_2" data-name="Layer 2"><g id="Layer_1-2" data-name="Layer 1"><path class="cls-1" d="M0,0V146.61H146.61V0ZM78.61,70.52H60.53v58.69H42.23V70.52H24.15V54.6H78.61Zm49.45,43.31a22.52,22.52,0,0,1-2.33,5.65,21.78,21.78,0,0,1-9.15,8.29c-3.88,1.92-8.78,2.89-14.57,2.89a56,56,0,0,1-6.63-.37,27.75,27.75,0,0,1-6-1.37c-1.79-.62-3.4-1.22-4.76-1.78a23.13,23.13,0,0,1-3.7-1.88l-1-.65L85.49,109l1.64,1.29A14.09,14.09,0,0,0,90,112a33.16,33.16,0,0,0,3.5,1.33,22.23,22.23,0,0,0,4,1,30.38,30.38,0,0,0,4.27.29,17.06,17.06,0,0,0,4.08-.42,5.43,5.43,0,0,0,2.45-1.25,6.11,6.11,0,0,0,1.42-1.87,5.58,5.58,0,0,0,.47-2.4,6.47,6.47,0,0,0-.29-1.92,15.33,15.33,0,0,0-.74-1.86,14.9,14.9,0,0,0-3.75-3.46A55.46,55.46,0,0,0,98,97.35q-2.31-1.21-4.35-2.52c-1.38-.89-2.68-1.8-3.88-2.71a22.54,22.54,0,0,1-6.18-6.91,19.27,19.27,0,0,1-2.26-9.57,23,23,0,0,1,.83-6.25,22.45,22.45,0,0,1,2.39-5.49,21.41,21.41,0,0,1,8.82-8,28.88,28.88,0,0,1,13.13-2.84,47.55,47.55,0,0,1,5.7.32,35.12,35.12,0,0,1,5.13,1c1.61.51,3.09,1,4.46,1.61a34.26,34.26,0,0,1,3.83,1.83l1.13.64-5.65,15-1.55-1A24.5,24.5,0,0,0,114.2,70a21.43,21.43,0,0,0-6.61-1c-2.75,0-4.75.47-6,1.4A4.35,4.35,0,0,0,100,74.19a5.92,5.92,0,0,0,.24,1.77,4.51,4.51,0,0,0,.7,1.36,13.66,13.66,0,0,0,3.56,2.87c1.72,1,4,2.34,6.71,3.84,1.92,1,3.75,2.07,5.42,3.08a26,26,0,0,1,4.49,3.35,20.7,20.7,0,0,1,7.71,17A25.56,25.56,0,0,1,128.06,113.83Z"/></g></g></svg>