<svg xmlns="http://www.w3.org/2000/svg" viewBox="0 0 146.09 146.09"><defs><style>.cls-1,.cls-2{fill:#ab9df2;}.cls-1{opacity:0;}</style></defs><g id="Layer_2" data-name="Layer 2"><g id="Layer_1-2" data-name="Layer 1"><rect class="cls-1" width="146.09" height="146.09"/><path class="cls-2" d="M77.77,123.47a2.56,2.56,0,0,1-4.58-1.58V98.54a5.13,5.13,0,0,0-5.13-5.13H42.28a2.56,2.56,0,0,1-2.08-4L57.15,65.63A5.13,5.13,0,0,0,53,57.52H21.77a2.56,2.56,0,0,1-2.08-4.05l22-30.76a2.57,2.57,0,0,1,2.09-1.08h65.47a2.57,2.57,0,0,1,2.09,4.06l-17,23.73a5.12,5.12,0,0,0,4.17,8.1h25.78a2.57,2.57,0,0,1,2,4.15l-48.56,61.8Z"/></g></g></svg>