<svg xmlns="http://www.w3.org/2000/svg" viewBox="0 0 146.09 146.09"><defs><style>.cls-1{fill:#80d0de;opacity:0;}.cls-2{fill:#fc9867;}</style></defs><g id="Layer_2" data-name="Layer 2"><g id="Layer_1-2" data-name="Layer 1"><rect class="cls-1" width="146.09" height="146.09"/><path class="cls-2" d="M13.47,88.93a4,4,0,0,1,4-4H33.33a4,4,0,0,1,4,4v15.89a4,4,0,0,1-4,4H17.44a4,4,0,0,1-4-4ZM45.24,65.1a4,4,0,0,1,4-4H65.1a4,4,0,0,1,4,4v39.72a4,4,0,0,1-4,4H49.21a4,4,0,0,1-4-4ZM77,41.27a4,4,0,0,1,4-4H96.87a4,4,0,0,1,4,4v63.55a4,4,0,0,1-4,4H81a4,4,0,0,1-4-4Zm31.77,63.55a4,4,0,0,1,4-4h15.89a4,4,0,0,1,0,7.94H112.76a4,4,0,0,1-4-4"/></g></g></svg>