<svg xmlns="http://www.w3.org/2000/svg" viewBox="0 0 146.09 146.09"><defs><style>.cls-1,.cls-2{fill:#fc9867;}.cls-1{opacity:0;}</style></defs><g id="Layer_2" data-name="Layer 2"><g id="Layer_1-2" data-name="Layer 1"><rect class="cls-1" width="146.09" height="146.09"/><polygon class="cls-2" points="20.76 27.18 64.73 27.18 59.04 49.04 20.76 49.04 20.76 27.18"/><polygon class="cls-2" points="124.69 27.18 124.69 49.04 71.36 49.04 77.06 27.18 124.69 27.18"/><polygon class="cls-2" points="20.76 61.5 55.95 61.5 50.25 83.36 20.76 83.36 20.76 61.5"/><polygon class="cls-2" points="124.69 61.5 124.69 83.36 62.58 83.36 68.27 61.5 124.69 61.5"/><polygon class="cls-2" points="20.76 97.04 46.84 97.04 41.14 118.91 20.76 118.91 20.76 97.04"/><polygon class="cls-2" points="124.69 97.04 124.69 118.91 53.47 118.91 59.17 97.04 124.69 97.04"/></g></g></svg>